<svg width="680" height="992" viewBox="0 0 680 992" fill="none" xmlns="http://www.w3.org/2000/svg">
<g clip-path="url(#clip0_61_52503)">
<rect width="680" height="992" rx="16" fill="#00BD59"/>
<circle opacity="0.3" cx="340" cy="1001" r="356" fill="#EEFFF5"/>
<g opacity="0.4" filter="url(#filter0_d_61_52503)">
<circle cx="340" cy="1001" r="302.216" fill="#EEFFF5"/>
</g>
<g opacity="0.6" filter="url(#filter1_d_61_52503)">
<circle cx="340" cy="1001" r="245.017" fill="#EEFFF5"/>
</g>
<g opacity="0.8" filter="url(#filter2_d_61_52503)">
<circle cx="340" cy="1001" r="189.525" fill="#EEFFF5"/>
</g>
<g filter="url(#filter3_f_61_52503)">
<ellipse cx="365" cy="738" rx="55" ry="3" fill="#252525"/>
</g>
<g filter="url(#filter4_f_61_52503)">
<ellipse cx="208" cy="741" rx="55" ry="3" fill="#252525"/>
</g>
<path d="M319.581 642.679C319.581 642.679 315.217 702.419 315.217 702.463C315.217 714.099 315.305 724.427 315.886 729.722C315.88 729.75 315.88 729.78 315.886 729.809C315.886 731.065 316.174 732.304 316.73 733.431V733.504C320.207 735.875 413.708 739.075 416.995 738.086C420.282 737.096 417.751 727.627 414.217 724.601C410.682 721.576 375.423 704.354 375.423 704.354L379.147 644.628L319.581 642.679Z" fill="#915B3C"/>
<path d="M417.14 738.056C413.839 739.045 320.352 735.845 316.876 733.46V733.387C316.324 732.264 316.036 731.031 316.032 729.78C316.025 729.751 316.025 729.721 316.032 729.692C315.465 724.383 315.305 714.128 315.363 702.433C315.363 702.433 316.105 692.062 316.977 679.975L376.906 682.782L375.568 704.324C375.568 704.324 410.798 721.561 414.348 724.572C417.897 727.583 420.442 737.111 417.14 738.056Z" fill="#EBEBEB"/>
<path d="M417.548 738.245C414.188 739.235 319.246 736.602 315.726 734.173C314.374 733.256 314.068 701.43 315.988 685.298L377.154 687.684C377.154 687.684 377.066 704.092 377.794 704.455C383.801 707.539 411.584 721.809 414.784 724.543C418.275 727.612 420.908 737.256 417.548 738.245Z" fill="#FDBF0C"/>
<path d="M416.326 734.391C400.442 733.402 336.251 730.9 320.468 731.132C320.337 731.132 320.337 731.22 320.468 731.234C336.192 732.558 400.398 734.536 416.326 734.653C416.66 734.667 416.66 734.42 416.326 734.391Z" fill="#263238"/>
<path d="M408.791 720.892C407.024 720.782 405.254 721.038 403.591 721.647C401.929 722.255 400.411 723.202 399.133 724.427C396.81 726.605 395.419 729.596 395.249 732.776C395.249 732.878 395.424 732.878 395.438 732.776C396.107 729.657 397.768 726.837 400.172 724.74C402.577 722.643 405.595 721.379 408.777 721.14C408.809 721.141 408.842 721.13 408.866 721.108C408.891 721.087 408.906 721.056 408.908 721.023C408.91 720.99 408.898 720.958 408.877 720.934C408.855 720.909 408.824 720.894 408.791 720.892Z" fill="#263238"/>
<path d="M381.576 705.662C375.205 705.328 367.743 707.306 363.582 712.354C363.422 712.557 363.713 712.775 363.902 712.688C369.577 709.978 375.527 707.886 381.648 706.448C381.753 706.438 381.849 706.388 381.916 706.307C381.982 706.227 382.014 706.123 382.005 706.019C381.995 705.915 381.945 705.819 381.864 705.752C381.784 705.685 381.68 705.653 381.576 705.662Z" fill="#263238"/>
<path d="M386.405 707.757C380.048 707.437 372.586 709.401 368.426 714.463C368.266 714.652 368.543 714.884 368.746 714.797C374.421 712.087 380.37 709.995 386.492 708.557C386.586 708.532 386.668 708.474 386.722 708.393C386.777 708.313 386.801 708.216 386.791 708.12C386.78 708.023 386.736 707.934 386.665 707.867C386.594 707.801 386.502 707.762 386.405 707.757Z" fill="#263238"/>
<path d="M391.249 709.866C384.893 709.532 377.431 711.51 373.27 716.557C373.11 716.761 373.387 716.979 373.59 716.892C379.265 714.182 385.215 712.09 391.336 710.652C391.388 710.646 391.438 710.63 391.483 710.605C391.529 710.58 391.569 710.546 391.601 710.506C391.634 710.465 391.658 710.419 391.672 710.369C391.687 710.319 391.691 710.267 391.686 710.215C391.68 710.164 391.664 710.114 391.639 710.068C391.614 710.023 391.58 709.983 391.54 709.951C391.499 709.918 391.453 709.894 391.403 709.88C391.353 709.865 391.301 709.861 391.249 709.866Z" fill="#263238"/>
<path d="M396.093 711.961C389.736 711.641 382.274 713.605 378.114 718.667C377.954 718.856 378.23 719.089 378.419 719.001C384.1 716.293 390.054 714.201 396.18 712.761C396.274 712.736 396.355 712.678 396.41 712.598C396.465 712.517 396.489 712.42 396.478 712.324C396.468 712.227 396.423 712.138 396.353 712.071C396.282 712.005 396.19 711.966 396.093 711.961Z" fill="#263238"/>
<path d="M325.851 691.509C318.709 691.262 318.301 702.375 325.458 702.623C332.614 702.87 333.007 691.815 325.851 691.509Z" fill="#263238"/>
<path d="M389.081 688.935C385.969 686.142 381.809 688.586 379.728 691.291C378.759 692.555 377.898 693.898 377.154 695.306C375.4 698.545 374.186 702.048 373.561 705.677C373.5 705.945 373.461 706.218 373.445 706.492C373.418 706.562 373.418 706.64 373.445 706.71C373.445 706.943 373.372 707.161 373.343 707.365C373.342 707.39 373.348 707.415 373.358 707.439C373.369 707.462 373.384 707.483 373.404 707.5C373.423 707.516 373.446 707.528 373.471 707.535C373.495 707.542 373.521 707.543 373.546 707.539C373.579 707.694 373.655 707.837 373.765 707.951C373.876 708.064 374.017 708.143 374.172 708.179C374.25 708.213 374.334 708.23 374.419 708.23C374.504 708.23 374.588 708.213 374.666 708.179C375.947 707.365 377.285 706.565 378.638 705.75L379.35 705.328C382.68 703.491 385.687 701.123 388.252 698.317C390.347 695.728 392.092 691.51 389.081 688.935ZM380.776 702.172L377.648 704.194C376.645 704.848 375.656 705.503 374.739 706.201C374.621 706.263 374.509 706.336 374.405 706.419C374.303 706.506 374.172 706.579 374.056 706.666C374.056 706.535 374.157 706.434 374.201 706.303C375.205 703.815 376.107 701.284 377.285 698.884C377.488 698.39 377.75 697.91 377.997 697.43C378.72 695.971 379.546 694.566 380.47 693.226C381.925 691.19 388.398 686.084 388.747 693.037C388.921 696.819 383.452 700.368 380.776 702.172Z" fill="#263238"/>
<path d="M374.711 707.044C374.729 707.027 374.745 707.005 374.755 706.982C374.765 706.958 374.771 706.932 374.771 706.906C374.771 706.88 374.765 706.855 374.755 706.831C374.745 706.807 374.729 706.786 374.711 706.768L374.332 706.419L374.216 706.288C374.216 706.288 374.216 706.288 374.143 706.288L373.532 705.721C369.525 702.233 364.75 699.741 359.597 698.448C356.266 697.662 351.51 698.448 350.87 702.521C350.23 706.594 354.201 708.586 357.415 709.197C360.682 709.721 364.011 709.721 367.278 709.197C369.59 708.906 371.903 708.528 374.143 708.252C374.278 708.24 374.407 708.193 374.518 708.116C374.629 708.039 374.717 707.934 374.775 707.812C374.832 707.689 374.856 707.554 374.845 707.419C374.834 707.285 374.787 707.156 374.711 707.044ZM365.663 707.452C362.463 707.757 355.975 708.455 353.706 705.357C349.619 699.713 357.823 699.539 360.237 700.252C361.805 700.717 363.341 701.285 364.834 701.953C367.779 703.31 370.649 704.825 373.431 706.492L373.751 706.681H373.401H372.441C370.274 706.957 367.947 707.248 365.663 707.51V707.452Z" fill="#263238"/>
<path d="M315.159 676.542L381.998 679.291C381.998 679.291 385.096 585.979 383.612 546.705C381.998 504.071 363.67 377.173 363.67 377.173H308.396C308.396 377.173 322.52 504.566 322.81 547.229C323.116 586.779 315.159 676.542 315.159 676.542Z" fill="#37474F"/>
<path d="M352.818 377.173L319.61 492.085C315.683 437.727 308.41 377.173 308.41 377.173H352.818Z" fill="#263238"/>
<path d="M318.898 383.427L322.404 421.247L325.662 459.153C327.742 484.419 329.72 509.7 331.218 535.039C331.582 541.367 331.815 547.723 331.713 554.094C331.611 560.465 331.335 566.778 331.015 573.12C330.365 585.795 329.55 598.45 328.571 611.085C327.611 623.74 324.076 660.978 324.076 660.978C324.076 660.978 326.636 623.667 327.466 611.012C328.295 598.357 329.109 585.717 329.706 573.048C329.996 566.72 330.229 560.393 330.346 554.065C330.462 547.738 330.171 541.439 329.778 535.156C328.396 509.846 326.404 484.565 324.556 459.284L318.898 383.427Z" fill="#263238"/>
<path d="M379.917 666.781C369.735 666.098 372.644 666.141 362.462 665.574C357.459 665.283 324.643 663.45 319.959 664.003C319.937 664.011 319.918 664.026 319.904 664.046C319.891 664.065 319.883 664.089 319.883 664.112C319.883 664.136 319.891 664.159 319.904 664.179C319.918 664.198 319.937 664.213 319.959 664.221C324.585 665.21 357.429 666.461 362.419 666.651C372.601 667.029 369.692 666.811 379.874 667.087C379.909 667.082 379.941 667.067 379.966 667.042C379.991 667.018 380.007 666.985 380.012 666.951C380.017 666.916 380.01 666.881 379.993 666.85C379.976 666.82 379.95 666.795 379.917 666.781Z" fill="#263238"/>
<path d="M213.382 608.802L182.835 660.396C177.57 670.84 173.133 680.106 171.286 685.124C171.28 685.153 171.28 685.183 171.286 685.211C170.73 686.338 170.436 687.577 170.428 688.833C170.428 688.833 170.428 688.906 170.428 688.921C172.479 692.601 254.794 737.126 258.14 737.708C261.485 738.289 263.478 728.674 261.66 724.398C259.841 720.121 235.957 688.993 235.957 688.993L265.907 637.181L213.382 608.802Z" fill="#915B3C"/>
<path d="M258.27 737.692C254.881 737.096 172.609 692.6 170.558 688.891C170.556 688.857 170.556 688.823 170.558 688.789C170.568 687.537 170.861 686.304 171.416 685.182C173.278 680.178 177.715 670.912 182.966 660.454L194.428 641.079L246.895 670.33L236.102 689.022C236.102 689.022 259.957 720.15 261.804 724.427C263.652 728.703 261.586 738.289 258.27 737.692Z" fill="#EBEBEB"/>
<path d="M258.503 738.056C255.055 737.431 171.227 692.775 169.147 689.022C168.347 687.567 182.239 658.97 191.155 645.384L244.859 674.782C244.859 674.782 237.469 689.386 237.906 690.055C241.906 695.495 260.408 720.601 262.052 724.514C263.943 728.849 261.95 738.623 258.503 738.056Z" fill="#FDBF0C"/>
<path d="M259.128 734.027C245.339 726.056 189.002 695.204 174.762 688.382C174.646 688.382 174.602 688.382 174.762 688.47C188.246 696.659 244.844 727.045 259.041 734.246C259.303 734.406 259.419 734.187 259.128 734.027Z" fill="#263238"/>
<path d="M258.387 718.579C256.862 717.693 255.169 717.133 253.416 716.935C251.664 716.737 249.889 716.906 248.205 717.43C245.155 718.349 242.577 720.407 241.004 723.176C241.004 723.263 241.121 723.35 241.179 723.278C243.158 720.78 245.892 718.99 248.973 718.175C252.053 717.359 255.315 717.562 258.27 718.754C258.294 718.769 258.322 718.775 258.349 718.769C258.376 718.764 258.4 718.748 258.416 718.725C258.431 718.702 258.437 718.673 258.431 718.646C258.426 718.619 258.41 718.595 258.387 718.579Z" fill="#263238"/>
<path d="M240.815 692.804C235.259 689.677 227.724 688.106 221.731 690.782C221.498 690.899 221.731 691.219 221.862 691.219C228.152 691.331 234.413 692.111 240.539 693.546C240.63 693.557 240.721 693.537 240.799 693.489C240.877 693.442 240.937 693.369 240.969 693.284C241.001 693.198 241.003 693.104 240.975 693.017C240.947 692.93 240.891 692.855 240.815 692.804Z" fill="#263238"/>
<path d="M244.219 696.848C238.662 693.721 231.128 692.15 225.135 694.826C224.902 694.928 225.047 695.263 225.266 695.263C231.552 695.368 237.808 696.148 243.928 697.59C244.02 697.605 244.115 697.588 244.196 697.542C244.277 697.496 244.34 697.424 244.374 697.337C244.408 697.25 244.411 697.154 244.383 697.065C244.355 696.976 244.297 696.899 244.219 696.848Z" fill="#263238"/>
<path d="M247.608 700.891C242.066 697.749 234.517 696.193 228.524 698.869C228.291 698.971 228.451 699.291 228.655 699.306C234.947 699.403 241.209 700.184 247.332 701.633C247.43 701.67 247.539 701.666 247.635 701.622C247.73 701.579 247.804 701.499 247.841 701.4C247.878 701.302 247.874 701.193 247.83 701.098C247.787 701.002 247.707 700.928 247.608 700.891Z" fill="#263238"/>
<path d="M250.998 704.921C245.441 701.793 237.906 700.237 231.913 702.913C231.681 703.015 231.826 703.335 232.044 703.35C238.335 703.451 244.596 704.226 250.721 705.663C250.812 705.673 250.904 705.653 250.982 705.606C251.06 705.558 251.119 705.486 251.151 705.4C251.183 705.315 251.185 705.221 251.158 705.134C251.13 705.047 251.073 704.972 250.998 704.921Z" fill="#263238"/>
<path d="M197.177 655.348C190.893 651.945 185.54 661.705 191.882 665.123C198.224 668.542 203.504 658.767 197.177 655.348Z" fill="#263238"/>
<path d="M254.983 681.182C253.456 677.298 248.641 677.632 245.572 679.131C244.134 679.821 242.761 680.639 241.47 681.574C238.465 683.691 235.822 686.28 233.644 689.24C233.466 689.46 233.306 689.693 233.164 689.938C233.134 689.958 233.108 689.983 233.088 690.013C233.068 690.043 233.054 690.077 233.048 690.113C232.902 690.302 232.786 690.477 232.669 690.651C232.654 690.673 232.645 690.698 232.642 690.725C232.64 690.751 232.644 690.778 232.654 690.802C232.664 690.827 232.68 690.848 232.7 690.865C232.721 690.882 232.745 690.893 232.771 690.898C232.73 691.053 232.734 691.216 232.783 691.368C232.832 691.521 232.924 691.655 233.048 691.757C233.11 691.813 233.184 691.855 233.264 691.88C233.345 691.906 233.43 691.913 233.513 691.902L238.153 691.495H238.982C242.783 691.334 246.532 690.552 250.081 689.182C253.092 687.829 256.481 684.862 254.983 681.182ZM241.659 689.327L237.95 689.749C236.771 689.88 235.579 690.026 234.415 690.215H234.022H233.6L233.891 689.967C235.884 688.178 237.833 686.316 239.957 684.687C240.364 684.353 240.801 684.033 241.237 683.713C242.537 682.733 243.903 681.844 245.324 681.051C247.55 679.873 255.608 678.142 252.83 684.571C251.346 688.164 244.859 688.906 241.659 689.327Z" fill="#263238"/>
<path d="M234.051 690.986C234.168 690.986 234.241 690.869 234.197 690.753C234.154 690.588 234.096 690.427 234.022 690.273V690.098C233.935 689.822 233.833 689.56 233.731 689.298C231.704 684.384 228.544 680.018 224.509 676.556C221.877 674.374 217.236 672.891 214.851 676.309C212.465 679.727 215.127 683.218 217.76 685.197C220.45 687.107 223.425 688.58 226.575 689.56C228.771 690.331 231.011 691.015 233.15 691.786C233.263 691.803 233.379 691.795 233.49 691.762C233.6 691.729 233.702 691.673 233.788 691.597C233.874 691.52 233.942 691.426 233.987 691.321C234.033 691.215 234.055 691.101 234.051 690.986ZM225.775 687.32C222.778 686.171 216.655 683.902 216 680.12C214.851 673.254 222.255 676.789 224.131 678.462C225.325 679.578 226.447 680.768 227.491 682.026C229.516 684.557 231.404 687.193 233.15 689.924C233.222 690.017 233.29 690.115 233.353 690.215L233.033 690.098L232.146 689.72C230.051 688.891 227.913 688.149 225.775 687.32Z" fill="#263238"/>
<path d="M358.012 377.129C357.765 378.263 353.895 396.184 349.895 411.588C346.986 422.847 343.975 432.738 342.259 433.756C340.309 434.905 330.826 439.109 327.64 440.433C327.64 440.433 306.301 546.981 295.028 580.073C284.628 610.62 255.26 668.803 255.26 668.803L194.56 635.275C194.56 635.275 227.928 577.819 233.048 562.982C241.005 539.97 270.78 427.705 270.78 427.705C270.78 427.705 270.547 392.533 282.417 377.187L358.012 377.129Z" fill="#37474F"/>
<path d="M257.863 654.941C248.932 649.966 251.565 651.275 242.59 646.388C238.226 644.002 209.324 628.322 204.771 626.809C204.684 626.809 204.596 626.925 204.684 626.998C208.436 629.907 237.586 645.035 242.023 647.362C251.085 652.075 248.54 650.621 257.66 655.232C257.893 655.305 258.023 655.043 257.863 654.941Z" fill="#263238"/>
<path d="M286.795 417.857C288.497 417.421 290.33 417.29 292.075 417.014C293.53 416.781 294.883 416.534 296.279 416.228C298.949 415.744 301.481 414.681 303.697 413.116C306.112 411.225 307.334 408.374 308.498 405.639C309.196 404.01 309.952 402.395 310.636 400.781C310.985 399.995 311.349 399.21 311.712 398.439C312.202 397.529 312.639 396.591 313.021 395.631C313.021 395.486 313.298 395.559 313.239 395.631C313.005 396.294 312.806 396.969 312.643 397.653L311.945 400.01C311.509 401.464 311.087 402.817 310.621 404.199C309.938 406.728 308.962 409.169 307.712 411.472C305.123 415.588 300.526 417.29 295.915 417.814C294.592 417.988 293.268 418.076 291.93 418.148C290.256 418.301 288.571 418.301 286.897 418.148C286.847 418.121 286.81 418.076 286.791 418.022C286.772 417.969 286.774 417.91 286.795 417.857Z" fill="#263238"/>
<path d="M347.32 431.298C340.543 433.761 333.992 436.808 327.742 440.404C327.509 440.549 327.742 440.927 327.931 440.811C334.52 437.989 341.24 435.269 347.669 432.083C347.755 432.026 347.817 431.941 347.845 431.842C347.874 431.743 347.866 431.638 347.825 431.544C347.783 431.45 347.71 431.374 347.617 431.329C347.525 431.284 347.42 431.273 347.32 431.298Z" fill="#263238"/>
<path d="M349.299 386.147C349.299 385.929 348.877 385.871 348.877 386.147C348.884 393.502 348.515 400.853 347.771 408.17C347.466 411.574 344.746 430.323 338.855 428.956C337.865 428.738 337.4 427.763 337.211 426.28C337.223 424.314 337.487 422.359 337.996 420.461C338.651 416.534 339.175 412.592 339.451 408.635C340.133 401.248 340.05 393.809 339.204 386.438C339.204 386.388 339.184 386.34 339.148 386.305C339.113 386.269 339.065 386.249 339.015 386.249C338.964 386.249 338.916 386.269 338.881 386.305C338.845 386.34 338.825 386.388 338.825 386.438C339.001 396.685 338.403 406.93 337.036 417.087C336.294 421.959 333.836 429.305 338.942 430.061C344.047 430.818 347.509 418.512 348.135 415.152C349.776 405.575 350.167 395.825 349.299 386.147Z" fill="#263238"/>
<path d="M339.014 429.436C338.489 430.7 338.046 431.998 337.691 433.32C337.308 434.342 337.12 435.428 337.138 436.52C337.138 436.723 337.429 436.753 337.545 436.607C338.153 435.643 338.613 434.594 338.912 433.494C339.363 432.302 339.829 431.109 340.251 429.887C340.31 429.723 340.303 429.542 340.229 429.384C340.155 429.226 340.022 429.103 339.858 429.043C339.694 428.983 339.513 428.991 339.355 429.065C339.197 429.139 339.074 429.272 339.014 429.436Z" fill="#263238"/>
<path d="M209.687 626.911C218.56 610.183 232.524 584.073 236.858 575.797C240.932 567.601 244.238 559.045 246.735 550.24C252.234 532.377 257.441 514.437 262.357 496.42C267.274 478.402 271.885 460.288 276.191 442.076C277.282 437.524 278.474 432.985 279.347 428.389C280.132 423.753 280.132 419.017 279.347 414.381C278.676 410.045 278.642 405.635 279.245 401.29C279.941 396.967 280.962 392.702 282.3 388.533C282.998 386.337 283.754 384.169 284.496 381.987C284.52 381.948 284.556 381.918 284.598 381.902C284.641 381.885 284.688 381.884 284.731 381.897C284.775 381.91 284.813 381.938 284.839 381.976C284.865 382.013 284.877 382.058 284.875 382.104C282.184 390.831 279.434 399.806 280.016 409.13C280.293 413.625 281.471 418.017 281.398 422.527C281.115 427.012 280.354 431.454 279.129 435.778C274.891 454.057 270.333 472.274 265.456 490.427C260.578 508.58 255.419 526.637 249.979 544.596C247.332 553.323 244.844 562.211 241.091 570.56C237.339 578.91 223.098 604.481 213.541 620.816L209.876 627.013C209.803 627.173 209.614 627.042 209.687 626.911Z" fill="#263238"/>
<path d="M336.993 290.246C342.302 312.734 355.044 345.623 363.815 355.703C373.576 366.976 417.781 356.008 445.04 348.43C450.465 346.975 440.24 305.607 434.538 307.498C419.643 312.473 388.093 324.953 385.082 323.236C382.565 321.782 363.263 299.178 353.386 285.839C337.633 264.675 333.24 274.406 336.993 290.246Z" fill="#915B3C"/>
<path d="M433.738 348.983C428.938 347.921 423.134 316.109 426.465 312.356C427.705 311.211 429.088 310.234 430.581 309.447C434.922 303.961 438.435 297.87 441.011 291.366C443.818 283.511 447.091 271.526 451.367 272.878C457.607 274.828 455.295 290.479 453.433 299.381C458.146 297.926 462.349 297.068 464.968 297.475C473.695 298.828 472.575 338.539 464.793 343.004C457.331 347.281 438.523 350.059 433.738 348.983Z" fill="#915B3C"/>
<path d="M524.882 418.759L444.37 435.225L439.352 350.815L496.372 339.15L524.882 418.759Z" fill="#455A64"/>
<path d="M496.372 339.15L504.198 422.992L524.882 418.759L496.372 339.15Z" fill="#37474F"/>
<path d="M456.56 353.186H453.942C453.942 353.114 453.942 345.913 454.116 338.641C454.251 335.189 455.692 331.918 458.146 329.488C460.601 327.057 463.886 325.65 467.339 325.549C472.11 325.346 477.972 327.906 478.786 335.731C479.645 344.153 479.819 348.168 479.819 348.343L477.201 348.444C477.201 348.444 477.026 344.328 476.168 335.993C475.557 329.957 471.266 327.964 467.44 328.124C464.656 328.199 462.004 329.328 460.019 331.282C458.035 333.237 456.866 335.872 456.749 338.655C456.604 345.943 456.56 353.114 456.56 353.186Z" fill="#263238"/>
<path d="M505.158 422.134C506.612 420.679 508.067 419.225 509.521 417.77C510.976 416.315 512.547 414.963 514.103 413.595L514.322 413.406L514.569 413.537C516.14 414.279 517.711 414.992 519.253 415.821C520.795 416.65 522.336 417.421 523.849 418.294C522.205 417.712 520.591 417.072 518.976 416.403C517.362 415.734 515.791 415.035 514.205 414.308H514.671C513.129 415.763 511.572 417.028 509.987 418.352C508.401 419.676 506.83 420.956 505.158 422.134Z" fill="white"/>
<path d="M514.423 413.93C512.969 408.766 511.674 403.588 510.365 398.41C509.056 393.231 507.79 388.024 506.51 382.831C505.23 377.638 504.037 372.431 502.859 367.209L501.114 359.383C500.561 356.765 499.979 354.161 499.441 351.543C500.168 354.117 500.896 356.707 501.521 359.281L503.514 367.049C504.837 372.242 506.074 377.434 507.368 382.627C508.663 387.82 509.827 393.028 511.005 398.25C512.183 403.472 513.361 408.679 514.423 413.93Z" fill="white"/>
<path d="M458.669 352.474C458.808 353.15 458.743 353.853 458.482 354.492C458.221 355.132 457.777 355.68 457.205 356.066C456.632 356.453 455.958 356.662 455.268 356.665C454.577 356.669 453.901 356.468 453.325 356.087C452.749 355.706 452.298 355.163 452.031 354.526C451.763 353.89 451.691 353.188 451.822 352.51C451.954 351.832 452.283 351.208 452.769 350.717C453.255 350.227 453.876 349.891 454.553 349.754C455.459 349.569 456.402 349.752 457.174 350.262C457.946 350.772 458.484 351.567 458.669 352.474Z" fill="#263238"/>
<path d="M481.666 347.775C481.804 348.452 481.739 349.154 481.479 349.794C481.218 350.433 480.773 350.981 480.201 351.368C479.629 351.755 478.955 351.963 478.264 351.967C477.574 351.971 476.898 351.769 476.321 351.389C475.745 351.008 475.295 350.465 475.027 349.828C474.76 349.191 474.687 348.489 474.819 347.811C474.95 347.133 475.28 346.51 475.766 346.019C476.252 345.528 476.873 345.193 477.549 345.055C478.456 344.871 479.399 345.053 480.17 345.563C480.942 346.073 481.48 346.869 481.666 347.775Z" fill="#263238"/>
<path d="M467.12 289.795L463.309 337.724H436.937L433.126 289.795H467.12Z" fill="#FDBF0C"/>
<path d="M469.389 285.475H430.639V292.457H469.389V285.475Z" fill="#455A64"/>
<path d="M466.727 285.475H433.286L435.25 277.62H464.778L466.727 285.475Z" fill="#37474F"/>
<path d="M459.28 314.189C459.28 320.4 455.178 325.447 450.131 325.447C445.083 325.447 440.967 320.4 440.967 314.189C440.967 307.978 445.069 302.916 450.131 302.916C455.193 302.916 459.28 307.963 459.28 314.189Z" fill="white"/>
<path d="M451.163 298.028C448.937 302.043 454.945 302.392 454.945 302.392C454.945 302.392 446.217 303.992 445.49 309.025C444.763 314.058 452.094 314 452.617 314.014C452.152 314.101 444.152 315.789 443.963 320.909C443.773 326.029 451.105 325.127 451.57 325.055C451.163 325.273 445.752 328.284 446.537 332.211C447.832 338.946 461.767 331.615 467.003 333.477C467.003 333.477 464.851 342.699 464.836 342.975C464.836 342.975 478.247 336.269 480.386 329.084C480.711 328.042 480.671 326.92 480.272 325.904C479.872 324.888 479.137 324.039 478.189 323.498C478.189 323.498 482.757 321.811 483.018 317.796C483.149 315.716 479.964 313.665 479.964 313.665C480.975 313.229 481.848 312.524 482.487 311.626C483.125 310.728 483.505 309.673 483.586 308.574C483.586 305.665 480.4 304.094 480.4 304.094C480.4 304.094 483.193 301.054 482.262 298.115C480.4 292.166 455.934 289.446 451.163 298.028Z" fill="#915B3C"/>
<path d="M479.935 303.745C480.008 303.745 480.052 303.658 479.935 303.628C471.808 300.628 462.96 300.172 454.567 302.319C454.306 302.392 454.32 302.858 454.567 302.828C463.023 301.901 471.569 302.209 479.935 303.745Z" fill="#263238"/>
<path d="M480.095 313.621C480.182 313.621 480.211 313.491 480.095 313.447C471.104 310.232 461.259 310.34 452.342 313.752C452.036 313.869 451.891 314.305 452.254 314.174C458.436 312.152 472.298 312.065 480.095 313.621Z" fill="#263238"/>
<path d="M451.032 325.52C459.76 322.262 468.691 322.145 477.855 323.338C477.986 323.338 477.986 323.193 477.855 323.149C473.491 321.345 467.6 321.185 462.989 321.462C458.694 321.634 454.518 322.922 450.872 325.2C450.77 325.302 450.843 325.578 451.032 325.52Z" fill="#263238"/>
<path d="M454.815 302.276C454.495 302.363 454.975 302.727 454.669 302.828C453.346 303.25 445.607 306.48 445.942 309.461C446.174 311.847 449.549 313.185 451.033 313.2H454.8L451.251 314.48C449.676 315.038 448.202 315.848 446.887 316.88C446.251 317.322 445.715 317.894 445.317 318.559C444.918 319.223 444.665 319.965 444.574 320.735C444.495 321.451 444.664 322.173 445.053 322.779C445.442 323.386 446.028 323.84 446.713 324.066C448.254 324.54 449.891 324.615 451.469 324.284L455.833 323.513L451.949 325.666C450.891 326.267 449.914 327.001 449.04 327.847C448.161 328.618 447.529 329.629 447.222 330.757C447.116 331.272 447.152 331.807 447.326 332.304C447.5 332.801 447.806 333.242 448.211 333.579C449.235 334.185 450.411 334.483 451.6 334.437C454.181 334.385 456.754 334.132 459.295 333.68C460.59 333.491 461.884 333.302 463.193 333.186C464.494 332.986 465.823 333.066 467.092 333.419C465.811 333.207 464.501 333.252 463.237 333.549C461.957 333.768 460.677 334.044 459.411 334.32C456.851 334.962 454.236 335.362 451.6 335.513C450.174 335.616 448.749 335.303 447.498 334.611C446.858 334.16 446.364 333.531 446.078 332.802C445.791 332.073 445.723 331.276 445.884 330.509C446.215 329.09 446.965 327.803 448.036 326.815C449.014 325.85 450.114 325.019 451.309 324.342L451.818 325.724C449.956 326.142 448.017 326.072 446.189 325.52C445.186 325.178 444.333 324.5 443.774 323.6C443.27 322.717 443.032 321.706 443.091 320.691C443.206 319.718 443.524 318.78 444.025 317.937C444.526 317.095 445.199 316.368 446 315.803C447.467 314.697 449.103 313.833 450.844 313.243L451.062 314.552C449.156 314.48 445.244 313.389 444.414 309.723C443.993 304.792 453.186 302.567 454.815 302.276Z" fill="#263238"/>
<path d="M454.946 302.378C454.027 302.142 453.149 301.77 452.342 301.272C452.016 301.077 451.748 300.8 451.564 300.468C451.38 300.136 451.287 299.761 451.295 299.381C451.434 298.556 451.808 297.789 452.371 297.17C452.953 296.457 453.607 295.716 454.306 295.017C453.326 295.31 452.419 295.805 451.644 296.472C451.191 296.823 450.814 297.262 450.534 297.761C450.254 298.261 450.078 298.812 450.015 299.381C449.999 300 450.171 300.608 450.509 301.127C450.853 301.608 451.328 301.982 451.877 302.203C452.854 302.591 453.931 302.652 454.946 302.378Z" fill="#263238"/>
<path d="M425.548 309.141L437.272 356.008C437.272 356.008 384.02 370.365 365.11 359.659C357.313 355.296 339.8 307.876 335.305 291.177C330.811 274.479 336.135 263.54 352.862 283.526C369.59 303.512 385.14 320.822 386.9 320.778C388.66 320.735 425.548 309.141 425.548 309.141Z" fill="#FDBF0C"/>
<path d="M416.559 315.6C417.081 318.832 417.766 322.036 418.61 325.2C419.381 328.502 420.253 331.775 421.111 335.062C421.97 338.35 425.824 351.324 426.784 354.568C426.778 354.586 426.776 354.605 426.778 354.623C426.78 354.642 426.787 354.66 426.798 354.675C426.809 354.691 426.823 354.703 426.84 354.712C426.856 354.721 426.875 354.725 426.893 354.725C426.912 354.725 426.931 354.721 426.947 354.712C426.964 354.703 426.978 354.691 426.989 354.675C427 354.66 427.007 354.642 427.009 354.623C427.011 354.605 427.009 354.586 427.003 354.568C426.246 351.252 423.235 338.16 422.377 334.96C421.519 331.76 420.69 328.531 419.744 325.331C418.898 322.052 417.884 318.818 416.704 315.643C416.675 315.512 416.559 315.512 416.559 315.6Z" fill="#263238"/>
<path opacity="0.1" d="M389.183 363.587C379.655 363.834 370.855 362.874 365.167 359.659C357.371 355.296 339.858 307.89 335.377 291.177C332.468 280.515 333.632 272.18 339.174 272.777L389.183 363.587Z" fill="black"/>
<path d="M331.742 271.016C323.567 266.653 301.079 264.704 292.031 270.784C280.598 278.449 270.067 322.887 274.736 325.52C283.056 330.204 311.857 304.385 318.141 293.795C324.425 283.206 331.742 271.016 331.742 271.016Z" fill="#FDBF0C"/>
<path opacity="0.1" d="M331.741 271.017C331.741 271.017 324.468 283.191 318.141 293.795C311.813 304.399 283.056 330.16 274.736 325.506C271.07 323.44 276.83 295.396 285.034 279.846L327.45 269.315C328.934 269.736 330.372 270.306 331.741 271.017Z" fill="black"/>
<path d="M273.078 398.657C273.325 398.919 366.754 397.784 367.626 396.722C371.587 390.659 373.1 383.319 371.859 376.183C365.619 344.401 349.051 284.239 342.898 274.275C339.044 268.049 323.436 265.911 316.716 271.686C304.163 282.377 279.507 345.637 271.158 378.54C268.176 390.133 272.816 398.424 273.078 398.657Z" fill="#FDBF0C"/>
<path d="M368.586 395.224C368.527 395.341 368.459 395.452 368.382 395.559C365.557 393.169 362.894 390.594 360.411 387.849C357.327 384.504 354.389 381.013 351.582 377.434C345.938 370.307 340.629 362.889 334.752 355.979C333.458 354.525 332.163 352.983 330.825 351.514L330.345 350.99C328.774 349.288 327.159 347.63 325.457 346.044C322.165 342.924 318.58 340.128 314.752 337.695C310.896 335.311 306.717 333.493 302.344 332.299C301.238 332.051 300.162 331.702 299.042 331.542L295.696 331.048C294.576 330.902 293.442 330.917 292.307 330.844L290.62 330.771H288.918C288.191 330.771 287.463 330.771 286.722 330.844C286.794 330.669 286.867 330.48 286.925 330.291C287.58 330.291 288.249 330.291 288.903 330.291H290.62L292.322 330.378C293.471 330.451 294.62 330.378 295.74 330.597L299.129 331.106C300.264 331.28 301.355 331.644 302.475 331.891C306.88 333.121 311.087 334.973 314.97 337.39C318.802 339.855 322.388 342.685 325.676 345.841C327.406 347.47 329.065 349.186 330.665 350.946L331.145 351.485C332.439 352.939 333.705 354.394 334.956 355.848C340.774 362.83 346.127 370.191 351.8 377.289C354.622 380.853 357.618 384.329 360.644 387.66C363.126 390.35 365.779 392.876 368.586 395.224ZM367.248 355.106C365.835 354.303 364.378 353.58 362.884 352.939C358.981 351.253 354.865 350.113 350.651 349.55H350.273L349.691 349.477C345.133 349.101 340.548 349.228 336.018 349.855C334.22 350.129 332.438 350.498 330.679 350.961C330.571 350.983 330.464 351.012 330.359 351.048C327.8 351.721 325.296 352.586 322.868 353.637C318.673 355.455 314.708 357.765 311.057 360.518C307.428 363.285 304.024 366.335 300.875 369.638C294.518 376.183 288.991 383.442 283.041 390.293C280.493 393.28 277.763 396.107 274.867 398.759H275.87C278.585 396.239 281.149 393.563 283.551 390.744C289.514 383.849 295.027 376.605 301.34 370.089C304.475 366.82 307.854 363.795 311.45 361.041C315.048 358.32 318.954 356.03 323.086 354.219C325.583 353.136 328.16 352.251 330.796 351.572H331.116C332.759 351.15 334.403 350.801 336.061 350.525C340.541 349.885 345.077 349.739 349.589 350.088L350.709 350.234H351.102C355.104 350.795 359.016 351.876 362.738 353.448C364.353 354.121 365.923 354.899 367.437 355.776C367.364 355.499 367.364 355.31 367.248 355.106ZM371.888 376.183C371.881 376.126 371.881 376.067 371.888 376.009C370.579 374.554 369.328 373.1 368.077 371.645C362.258 364.721 356.876 357.332 351.233 350.205V350.103C351.073 349.899 350.913 349.695 350.738 349.506C348.12 346.175 345.371 342.917 342.491 339.79C339.435 336.409 336.102 333.29 332.527 330.466C328.979 327.591 325.066 325.199 320.89 323.353C316.684 321.538 312.234 320.352 307.682 319.833C303.124 319.457 298.539 319.584 294.009 320.211C292.918 320.385 291.842 320.574 290.765 320.807C290.678 321.055 290.576 321.287 290.474 321.535C291.682 321.244 292.889 321.011 294.111 320.807C298.591 320.167 303.127 320.021 307.639 320.371C312.146 320.856 316.557 322.003 320.73 323.775C324.899 325.58 328.812 327.928 332.367 330.757C335.938 333.56 339.27 336.654 342.331 340.008C345.24 343.048 347.858 346.204 350.447 349.448L350.927 350.059L351.174 350.365C356.847 357.477 362.2 364.823 368.033 371.82C369.386 373.405 370.739 374.991 372.15 376.533C371.932 376.445 371.917 376.314 371.888 376.183ZM347.683 285.577C344.305 288.047 340.661 290.131 336.818 291.788C334.323 292.86 331.751 293.74 329.123 294.421L328.788 294.508C327.145 294.93 325.501 295.265 323.843 295.541C319.364 296.185 314.827 296.336 310.315 295.992C307.591 295.7 304.899 295.165 302.271 294.392L302.053 294.843C304.733 295.644 307.478 296.209 310.257 296.53C314.815 296.906 319.4 296.779 323.93 296.152C325.719 295.861 327.508 295.497 329.268 295.032C329.378 295.016 329.486 294.987 329.588 294.945C332.147 294.277 334.651 293.416 337.08 292.37C340.889 290.715 344.508 288.652 347.873 286.217C347.829 285.999 347.756 285.781 347.683 285.577ZM356.309 313.214C352.414 312.031 348.689 310.349 345.225 308.21C341.397 305.778 337.811 302.982 334.519 299.861C332.818 298.276 331.203 296.617 329.632 294.901L329.167 294.377C327.814 292.923 326.519 291.468 325.225 289.912C323.93 288.355 322.926 287.163 321.806 285.766L321.341 285.199C318.693 281.868 316.104 278.479 313.515 275.089C313.458 275.155 313.405 275.223 313.355 275.293C315.901 278.58 318.432 281.882 321.021 285.141L321.472 285.708C322.635 287.163 323.814 288.617 325.021 290.072C326.228 291.526 327.537 292.981 328.832 294.436C328.977 294.61 329.137 294.785 329.312 294.959C330.897 296.719 332.556 298.436 334.287 300.065C337.582 303.222 341.172 306.056 345.007 308.531C348.575 310.755 352.425 312.492 356.455 313.694C356.401 313.57 356.353 313.444 356.309 313.316V313.214ZM346.753 282.944C340.96 284.597 334.972 285.468 328.948 285.533H327.261L325.559 285.461C324.439 285.461 323.305 285.461 322.185 285.257L321.341 285.141H321.021L318.824 284.821C317.704 284.646 316.628 284.297 315.522 284.05C313.305 283.454 311.136 282.691 309.035 281.766L308.831 282.144C310.962 283.091 313.159 283.879 315.406 284.501C316.512 284.763 317.603 285.112 318.737 285.301L321.472 285.708H321.806H322.126C323.261 285.853 324.41 285.853 325.545 285.926L327.261 286.013H328.963C333.528 285.974 338.079 285.487 342.549 284.559C344.003 284.253 345.458 283.89 346.913 283.468C346.851 283.311 346.797 283.151 346.753 282.988V282.944Z" fill="white"/>
<path d="M315.319 542.923L216.771 535.505L238.721 436.214L308.512 441.48L315.319 542.923Z" fill="#A6A6A6"/>
<path d="M308.512 441.48L289.995 541.018L315.32 542.923L308.512 441.48Z" fill="#C7C7C7"/>
<path d="M256.365 444.898L252.888 444.011C252.888 443.924 255.317 434.411 257.863 424.81C260.612 414.439 271.085 410.017 279.682 411.719C286.067 413.014 293.02 418.308 291.522 429C289.937 440.447 288.86 445.815 288.817 446.047L285.296 445.335C285.296 445.335 286.402 439.822 287.973 428.505C289.122 420.287 284.075 416.257 278.969 415.239C272.06 413.785 263.579 417.377 261.368 425.712C258.779 435.313 256.394 444.796 256.365 444.898Z" fill="#263238"/>
<path d="M291.391 540.348C293.515 539.068 295.755 537.905 297.908 536.741C300.06 535.577 302.344 534.486 304.584 533.425L304.89 533.279L305.152 533.497C306.722 534.879 308.293 536.246 309.806 537.686C311.319 539.127 312.861 540.596 314.315 542.05C312.599 540.843 310.941 539.563 309.312 538.254C307.683 536.945 306.068 535.621 304.468 534.268H305.035C302.814 535.364 300.565 536.416 298.286 537.425C296.002 538.501 293.733 539.49 291.391 540.348Z" fill="white"/>
<path d="M304.817 533.89C304.817 527.461 305.021 521.032 305.21 514.602C305.399 508.173 305.661 501.758 305.879 495.329C306.097 488.9 306.446 482.485 306.795 476.07L307.333 466.426C307.552 463.226 307.741 460.011 307.988 456.811C307.988 460.026 307.901 463.241 307.842 466.455L307.595 476.099C307.421 482.529 307.144 488.943 306.926 495.373C306.708 501.802 306.359 508.217 306.01 514.646C305.661 521.075 305.297 527.475 304.817 533.89Z" fill="white"/>
<path d="M259.39 444.636C259.355 445.576 259.042 446.485 258.491 447.247C257.94 448.009 257.175 448.59 256.293 448.918C255.412 449.245 254.453 449.304 253.538 449.087C252.623 448.869 251.793 448.385 251.152 447.697C250.512 447.008 250.091 446.144 249.941 445.216C249.791 444.287 249.92 443.335 250.311 442.48C250.703 441.625 251.339 440.905 252.139 440.411C252.939 439.917 253.868 439.671 254.808 439.705C256.069 439.755 257.258 440.301 258.117 441.225C258.976 442.149 259.433 443.376 259.39 444.636Z" fill="#263238"/>
<path d="M291.406 445.873C291.368 446.812 291.053 447.719 290.5 448.479C289.947 449.239 289.181 449.818 288.3 450.143C287.418 450.469 286.46 450.525 285.546 450.307C284.632 450.088 283.803 449.603 283.164 448.913C282.526 448.224 282.105 447.361 281.957 446.433C281.808 445.505 281.938 444.554 282.329 443.699C282.721 442.845 283.357 442.126 284.157 441.632C284.957 441.139 285.885 440.894 286.824 440.927C287.45 440.95 288.066 441.096 288.635 441.357C289.205 441.618 289.717 441.989 290.143 442.448C290.568 442.908 290.899 443.447 291.116 444.035C291.333 444.622 291.431 445.247 291.406 445.873Z" fill="#263238"/>
<path d="M297.064 568.32L186.53 539.854L231.651 431.414L309.952 451.575L297.064 568.32Z" fill="#FDBF0C"/>
<path d="M309.952 451.575L268.671 561.004L297.065 568.32L309.952 451.575Z" fill="#FDBF0C"/>
<path opacity="0.1" d="M309.952 451.575L268.671 561.004L297.065 568.32L309.952 451.575Z" fill="black"/>
<path d="M251.695 444.84L248.437 443.226C248.437 443.138 252.917 434.193 257.514 425.189C262.488 415.472 273.863 413.334 281.994 416.883C288.075 419.545 293.835 426.309 290.053 436.622C285.995 447.662 283.769 452.782 283.667 452.986L280.336 451.531C280.336 451.531 282.62 446.28 286.635 435.371C289.544 427.443 285.384 422.352 280.525 420.228C273.951 417.319 264.758 419.05 260.757 426.861C256.175 435.836 251.739 444.753 251.695 444.84Z" fill="#263238"/>
<g opacity="0.1">
<path d="M270.387 560.596C273.078 559.564 275.812 558.691 278.532 557.818C281.252 556.945 284.031 556.16 286.794 555.418L287.187 555.302L287.42 555.607C288.875 557.498 290.446 559.375 291.871 561.324C293.297 563.273 294.78 565.193 296.104 567.215C294.402 565.484 292.787 563.695 291.187 561.877C289.587 560.058 288.031 558.226 286.504 556.364L287.115 556.567C284.365 557.353 281.587 558.022 278.809 558.764C276.031 559.506 273.223 560.015 270.387 560.596Z" fill="black"/>
<path d="M286.955 555.913C288.322 548.64 289.864 541.367 291.318 534.094C292.773 526.821 294.431 519.548 295.988 512.275C297.544 505.002 299.246 497.729 300.948 490.558L303.522 479.721C304.424 476.114 305.282 472.448 306.228 468.899C305.559 472.565 304.773 476.172 304.104 479.838L301.908 490.776C300.453 498.049 298.78 505.322 297.224 512.595C295.668 519.868 293.966 527.141 292.264 534.327C290.562 541.512 288.816 548.712 286.955 555.913Z" fill="black"/>
</g>
<path d="M254.75 445.247C254.509 446.175 253.999 447.01 253.284 447.647C252.569 448.284 251.681 448.696 250.733 448.828C249.784 448.961 248.818 448.81 247.955 448.393C247.092 447.977 246.373 447.314 245.887 446.489C245.401 445.663 245.171 444.712 245.225 443.756C245.28 442.8 245.616 441.881 246.193 441.116C246.769 440.351 247.56 439.774 248.464 439.458C249.368 439.143 250.346 439.102 251.273 439.342C251.89 439.499 252.47 439.777 252.98 440.16C253.489 440.543 253.917 441.022 254.241 441.571C254.564 442.12 254.775 442.727 254.862 443.358C254.95 443.989 254.912 444.631 254.75 445.247Z" fill="#263238"/>
<path d="M286.329 453.379C286.088 454.306 285.578 455.141 284.863 455.778C284.148 456.416 283.261 456.827 282.312 456.96C281.363 457.092 280.397 456.941 279.534 456.525C278.672 456.108 277.952 455.445 277.466 454.62C276.98 453.794 276.75 452.843 276.804 451.887C276.859 450.931 277.195 450.012 277.772 449.247C278.348 448.482 279.139 447.906 280.043 447.59C280.947 447.274 281.925 447.233 282.852 447.473C283.47 447.631 284.049 447.909 284.559 448.291C285.068 448.674 285.497 449.153 285.82 449.702C286.143 450.251 286.354 450.859 286.442 451.49C286.529 452.121 286.491 452.763 286.329 453.379Z" fill="#263238"/>
<path d="M305.791 275.337C295.056 279.701 251.186 303.759 246.153 311.702C236.917 326.044 240.117 376.285 241.557 387.646C242.182 392.591 282.983 389.842 282.692 384.518C282.489 380.925 274.838 335.135 276.001 331.324C277.165 327.513 302.679 301.781 317.326 289.403C331.218 277.606 328.541 266.173 305.791 275.337Z" fill="#915B3C"/>
<path d="M291.231 428.767C290.183 429.441 288.954 429.779 287.709 429.735C286.464 429.69 285.262 429.266 284.264 428.519C283.432 430.464 281.944 432.054 280.06 433.014C276.656 434.556 272.787 429.901 272.787 429.901C271.507 431.749 269.696 433.164 267.594 433.96C264.191 435.109 259.58 430.963 259.58 430.963C257.466 432.001 255.05 432.244 252.772 431.647C246.765 429.814 244.277 420.534 242.59 414.643C240.903 408.752 241.805 390.54 241.615 387.005L279.289 376.14C279.289 376.14 294.155 400.431 295.101 407.617C295.901 413.683 295.13 426.032 291.231 428.767Z" fill="#915B3C"/>
<path d="M284.787 428.083C285.486 421.436 284.176 414.992 283.245 408.388C283.245 408.357 283.233 408.328 283.211 408.306C283.19 408.284 283.16 408.272 283.129 408.272C283.098 408.272 283.069 408.284 283.047 408.306C283.025 408.328 283.013 408.357 283.013 408.388C284.016 414.89 283.725 421.479 284.467 428.04C284.461 428.082 284.473 428.125 284.499 428.159C284.525 428.193 284.563 428.216 284.605 428.221C284.648 428.227 284.691 428.216 284.725 428.19C284.759 428.164 284.782 428.126 284.787 428.083Z" fill="#263238"/>
<path d="M273.209 429.683C273.215 428.162 273.025 426.646 272.641 425.174C272.336 423.589 272.001 422.003 271.638 420.432C270.92 417.271 270.125 414.139 269.252 411.035C269.252 410.905 268.99 410.919 269.019 411.035C269.732 414.177 270.474 417.334 270.983 420.505C271.274 422.085 271.55 423.671 271.812 425.261C271.98 426.768 272.316 428.252 272.816 429.683C272.837 429.716 272.866 429.744 272.9 429.762C272.935 429.781 272.973 429.791 273.012 429.791C273.051 429.791 273.09 429.781 273.124 429.762C273.159 429.744 273.188 429.716 273.209 429.683Z" fill="#263238"/>
<path d="M259.522 430.832C259.51 429.453 259.264 428.086 258.794 426.789C258.431 425.334 258.082 423.879 257.747 422.498C257.063 419.588 256.38 416.767 255.798 413.886C255.798 413.741 255.536 413.77 255.565 413.886C256.147 416.796 256.685 419.705 257.282 422.701L258.198 427.065C258.365 428.404 258.764 429.703 259.376 430.905C259.376 430.905 259.507 430.905 259.522 430.832Z" fill="#263238"/>
<path d="M282.373 376.082L238.43 386.482C238.43 386.482 234.066 330.873 244.641 310.043C249.005 301.461 289.064 279.031 306.795 273.417C324.527 267.802 336.6 272.98 315.858 291.904C295.115 310.829 277.311 328.371 277.427 330.277C277.544 332.182 282.373 376.082 282.373 376.082Z" fill="#FDBF0C"/>
<path d="M282.911 324.371C284.366 323.236 291.726 315.542 294.257 313.054C296.323 311.018 298.432 309.025 300.541 307.047C301.995 306.014 303.45 305.01 304.905 303.948C304.919 303.931 304.928 303.909 304.929 303.886C304.93 303.864 304.923 303.841 304.909 303.823C304.896 303.804 304.877 303.791 304.855 303.785C304.833 303.778 304.809 303.78 304.788 303.788L301.748 305.912C304.454 303.396 307.174 300.865 309.836 298.305C309.908 298.232 309.836 298.145 309.734 298.203C305.123 301.927 300.643 305.767 296.264 309.84C291.278 314.415 286.558 319.272 282.126 324.385C281.151 325.462 281.646 325.404 282.911 324.371Z" fill="#263238"/>
<path d="M278.169 368.591C275.114 368.838 272.045 369.551 269.034 370.045C266.023 370.54 262.765 371.311 259.638 371.98C256.51 372.649 244.117 375.718 241.019 376.489C240.992 376.489 240.966 376.5 240.947 376.519C240.928 376.538 240.917 376.564 240.917 376.591C240.917 376.618 240.928 376.644 240.947 376.663C240.966 376.682 240.992 376.693 241.019 376.693C244.175 376.125 256.627 373.783 259.696 373.173C262.765 372.562 265.82 371.863 268.874 371.122C272.003 370.461 275.095 369.641 278.14 368.663C278.14 368.663 278.242 368.591 278.169 368.591Z" fill="#263238"/>
<path d="M279.624 350.917C280.482 355.077 281.078 359.252 281.544 363.441C281.776 365.536 281.965 367.645 282.14 369.74C282.315 371.834 282.431 373.958 282.489 376.067V376.183H282.402L281.194 376.343L282.344 375.965L282.271 376.082C281.849 374.002 281.558 371.907 281.224 369.827C280.889 367.747 280.685 365.638 280.467 363.543C280.089 359.368 279.682 355.165 279.624 350.917Z" fill="#263238"/>
<path d="M336.41 285.679C331.319 286.915 321.399 278.566 317.894 272.268C317.661 271.846 318.301 267.278 318.795 261.693C319.086 258.304 319.334 254.522 319.319 251.06L341.138 256.194C339.923 260.536 339.248 265.011 339.131 269.518C339.13 270.007 339.179 270.494 339.276 270.973C339.276 270.973 339.276 271.118 339.276 271.22C339.727 273.824 341.327 284.443 336.41 285.679Z" fill="#915B3C"/>
<path d="M339.233 270.9C339.242 270.973 339.242 271.046 339.233 271.118C338.497 271.23 337.752 271.278 337.008 271.264C324.425 271.075 321.356 255.7 320.76 251.365L326.2 252.645L341.066 256.151C339.852 260.493 339.178 264.968 339.058 269.475C339.071 269.954 339.13 270.432 339.233 270.9Z" fill="#263238"/>
<path d="M317.908 225.808C315.566 233.692 319.901 256.354 325.53 261.431C333.705 268.704 346.985 269.315 353.167 259.525C359.146 250.012 352.978 220.528 346.694 215.975C337.501 209.255 321.428 214.157 317.908 225.808Z" fill="#915B3C"/>
<path d="M340.397 239.888C340.397 239.888 340.295 239.99 340.309 240.048C340.629 241.576 340.76 243.365 339.466 244.136C339.466 244.136 339.466 244.238 339.466 244.223C341.182 243.67 340.95 241.285 340.397 239.888Z" fill="#263238"/>
<path d="M338.738 238.55C336.236 238.812 336.963 243.787 339.276 243.539C341.589 243.292 340.818 238.317 338.738 238.55Z" fill="#263238"/>
<path d="M348.935 238.506C348.935 238.506 349.066 238.506 349.08 238.623C349.255 240.179 349.72 241.925 351.175 242.23V242.317C349.444 242.317 348.862 240.005 348.935 238.506Z" fill="#263238"/>
<path d="M350.084 236.703C352.528 236.15 353.444 241.067 351.175 241.605C348.906 242.143 348.033 237.154 350.084 236.703Z" fill="#263238"/>
<path d="M336.44 236.557C337.069 236.272 337.68 235.952 338.273 235.597C338.959 235.349 339.547 234.885 339.946 234.274C340.029 234.055 340.04 233.816 339.977 233.591C339.915 233.365 339.781 233.166 339.596 233.023C339.18 232.802 338.713 232.697 338.242 232.717C337.772 232.738 337.315 232.883 336.92 233.139C336.041 233.529 335.34 234.235 334.956 235.117C334.882 235.323 334.869 235.545 334.918 235.758C334.967 235.97 335.077 236.164 335.234 236.316C335.39 236.468 335.587 236.572 335.801 236.614C336.015 236.657 336.237 236.637 336.44 236.557Z" fill="#263238"/>
<path d="M351.64 233.925C350.953 233.884 350.268 233.806 349.589 233.692C348.856 233.711 348.136 233.491 347.538 233.066C347.376 232.895 347.276 232.674 347.255 232.439C347.234 232.204 347.292 231.969 347.422 231.772C347.727 231.417 348.12 231.149 348.562 230.996C349.004 230.843 349.479 230.809 349.938 230.899C350.903 230.946 351.816 231.35 352.498 232.034C352.645 232.198 352.741 232.401 352.774 232.618C352.807 232.836 352.777 233.059 352.686 233.259C352.595 233.459 352.447 233.629 352.262 233.747C352.076 233.865 351.86 233.927 351.64 233.925Z" fill="#263238"/>
<path d="M341.56 249.314C342.039 249.867 342.628 250.314 343.289 250.627C343.95 250.94 344.669 251.112 345.4 251.132C346.042 251.171 346.685 251.107 347.306 250.943C347.426 250.93 347.543 250.9 347.655 250.856L347.99 250.754C348.069 250.724 348.136 250.67 348.183 250.6C348.23 250.529 348.254 250.446 348.251 250.361C348.257 250.313 348.257 250.264 348.251 250.216V250.085C348.12 248.892 347.742 247.176 347.742 247.176C348.208 247.336 350.55 248.005 350.433 247.394C349.516 242.066 348.054 236.845 346.069 231.815C346.055 231.785 346.03 231.76 345.999 231.746C345.969 231.732 345.934 231.729 345.901 231.737C345.868 231.746 345.84 231.766 345.82 231.793C345.8 231.821 345.791 231.854 345.793 231.888C346.622 236.819 348.295 241.561 349.197 246.434C348.358 246.177 347.485 246.045 346.608 246.041C346.448 246.114 347.393 249.474 347.422 250.027C346.465 250.27 345.468 250.315 344.493 250.16C343.518 250.005 342.584 249.653 341.749 249.125C341.56 249.052 341.458 249.169 341.56 249.314Z" fill="#263238"/>
<path d="M346.593 250.769C346.015 251.654 345.219 252.376 344.28 252.863C343.767 253.116 343.185 253.198 342.622 253.096C341.371 252.878 341.255 251.758 341.415 250.798C341.499 250.298 341.64 249.81 341.837 249.343C343.232 250.309 344.897 250.808 346.593 250.769Z" fill="#263238"/>
<path d="M344.28 252.878C343.767 253.131 343.185 253.212 342.622 253.111C341.371 252.892 341.255 251.772 341.415 250.812C342.053 250.795 342.679 250.987 343.197 251.36C343.715 251.734 344.095 252.267 344.28 252.878Z" fill="#FF98B9"/>
<path d="M318.374 246.594C317.646 244.572 310.766 222.608 311.188 220.135C311.566 217.881 314.097 218.681 314.097 218.491C314.097 218.302 314.097 216.339 315.261 215.495C315.678 215.287 316.133 215.166 316.599 215.141C317.064 215.116 317.53 215.187 317.966 215.35C317.966 215.35 318.199 213.197 319.508 212.528C319.945 212.356 320.42 212.303 320.884 212.372C321.349 212.44 321.787 212.63 322.156 212.92C322.241 212.347 322.465 211.802 322.807 211.334C323.149 210.865 323.599 210.486 324.119 210.229C324.59 210.059 325.103 210.044 325.583 210.188C326.062 210.333 326.483 210.627 326.781 211.029C326.781 211.029 327.203 208.964 328.57 208.469C329.938 207.975 331.261 209.4 331.261 209.4C331.261 209.4 331.901 207.495 333.589 207.364C334.121 207.363 334.641 207.521 335.084 207.816C335.527 208.111 335.872 208.531 336.076 209.022C336.076 209.022 336.949 207.16 338.549 207.015C340.149 206.869 340.833 208.804 340.833 208.804C340.833 208.804 341.356 206.986 342.869 207C344.382 207.015 344.876 209.08 344.876 209.08C344.876 209.08 345.575 207.073 347.378 207.524C350.156 208.222 351.378 221.139 352.382 226.724C352.382 226.724 351.451 224.092 350.287 224.063C349.124 224.033 348.396 225.939 346.287 226.564C343.276 227.452 337.952 224.208 333.807 225.401C329.661 226.594 327.043 231.074 326.01 237.59C324.832 244.95 320.09 251.423 318.374 246.594Z" fill="#263238"/>
<path d="M344.295 239.685C343.927 238.476 343.228 237.394 342.278 236.563C341.327 235.731 340.162 235.182 338.916 234.978C337.669 234.774 336.39 234.923 335.224 235.408C334.058 235.894 333.051 236.696 332.317 237.725C331.583 238.753 331.152 239.967 331.073 241.227C330.994 242.488 331.269 243.746 331.867 244.858C332.466 245.971 333.364 246.893 334.46 247.521C335.556 248.149 336.807 248.458 338.069 248.412C338.632 248.398 339.19 248.305 339.727 248.136C341.445 247.627 342.89 246.457 343.746 244.884C344.603 243.31 344.8 241.461 344.295 239.743V239.685ZM339.48 247.219C338.743 247.437 337.97 247.508 337.205 247.427C336.44 247.346 335.699 247.115 335.024 246.747C334.349 246.38 333.752 245.883 333.269 245.285C332.786 244.687 332.425 244 332.207 243.263C331.989 242.526 331.919 241.753 332 240.988C332.081 240.223 332.312 239.482 332.679 238.807C333.046 238.132 333.543 237.535 334.141 237.052C334.739 236.569 335.426 236.208 336.163 235.99C336.636 235.848 337.125 235.769 337.618 235.757C339.092 235.608 340.567 236.027 341.743 236.928C342.918 237.829 343.706 239.144 343.945 240.606C344.185 242.068 343.858 243.566 343.03 244.795C342.203 246.024 340.939 246.891 339.494 247.219H339.48Z" fill="#FDBF0C"/>
<path d="M339.48 247.219C338.743 247.437 337.97 247.508 337.205 247.427C336.441 247.346 335.699 247.115 335.024 246.748C334.349 246.38 333.752 245.883 333.269 245.285C332.786 244.688 332.425 244 332.207 243.263C331.989 242.526 331.919 241.753 332 240.988C332.081 240.224 332.312 239.482 332.679 238.807C333.046 238.132 333.543 237.535 334.141 237.052C334.739 236.569 335.426 236.208 336.164 235.99C336.636 235.848 337.125 235.769 337.618 235.757C339.092 235.608 340.567 236.027 341.743 236.928C342.918 237.829 343.706 239.144 343.946 240.606C344.185 242.068 343.858 243.566 343.031 244.795C342.203 246.024 340.939 246.891 339.495 247.219H339.48Z" fill="#263238"/>
<path d="M357.75 238.39C357.523 236.718 356.775 235.161 355.611 233.939C355.137 233.396 354.535 232.979 353.86 232.725C353.185 232.471 352.457 232.388 351.742 232.485C351.026 232.615 350.353 232.917 349.78 233.365C349.207 233.814 348.753 234.395 348.455 235.059C347.72 236.576 347.481 238.286 347.771 239.947C348.309 243.423 350.753 245.983 353.342 245.881C353.487 245.896 353.634 245.896 353.779 245.881C356.571 245.416 358.332 242.041 357.75 238.39ZM353.691 244.95C351.437 245.3 349.197 242.987 348.702 239.801C348.437 238.32 348.646 236.793 349.298 235.437C349.532 234.909 349.889 234.444 350.339 234.082C350.79 233.72 351.321 233.471 351.888 233.357C351.999 233.349 352.111 233.349 352.222 233.357C352.741 233.359 353.255 233.471 353.728 233.684C354.202 233.897 354.625 234.207 354.971 234.594C355.999 235.683 356.66 237.067 356.862 238.55C357.357 241.721 355.931 244.601 353.691 244.95Z" fill="#FDBF0C"/>
<path d="M353.691 244.95C351.437 245.299 349.197 242.986 348.702 239.801C348.437 238.32 348.646 236.793 349.298 235.437C349.532 234.908 349.889 234.443 350.339 234.081C350.79 233.719 351.321 233.471 351.888 233.357C351.999 233.349 352.111 233.349 352.222 233.357C352.741 233.359 353.254 233.47 353.728 233.683C354.202 233.896 354.625 234.206 354.971 234.593C355.999 235.683 356.66 237.066 356.862 238.55C357.357 241.721 355.931 244.601 353.691 244.95Z" fill="#263238"/>
<path d="M344.192 240.499L343.509 239.903C344.396 238.899 346.549 237.387 348.454 238.885L347.902 239.583C346.2 238.245 344.265 240.412 344.192 240.499Z" fill="#FDBF0C"/>
<path d="M314.708 246.856L313.85 246.58C313.981 246.172 315.217 242.652 317.152 242.012C319.087 241.372 331.116 240.688 331.698 240.645V241.547C328.221 241.765 318.854 242.419 317.443 242.87C316.032 243.321 314.999 245.896 314.708 246.856Z" fill="#FDBF0C"/>
<path d="M323.727 244.296C323.727 244.296 318.374 237.023 315.101 239.016C311.828 241.008 315.974 251.496 319.93 252.834C320.425 253.042 320.956 253.148 321.493 253.145C322.029 253.142 322.559 253.031 323.051 252.817C323.543 252.604 323.987 252.293 324.356 251.904C324.724 251.514 325.01 251.054 325.196 250.551L323.727 244.296Z" fill="#915B3C"/>
<path d="M316.308 242.041V242.143C319.072 243.176 320.672 245.692 321.676 248.296C321.509 248.026 321.285 247.795 321.02 247.62C320.755 247.444 320.456 247.329 320.142 247.28C319.828 247.232 319.507 247.252 319.202 247.339C318.897 247.427 318.614 247.58 318.374 247.787C318.301 247.787 318.374 247.947 318.446 247.932C318.925 247.763 319.445 247.747 319.933 247.888C320.421 248.029 320.852 248.319 321.166 248.718C321.691 249.381 322.145 250.098 322.519 250.856C322.65 251.103 323.101 250.958 322.999 250.682C322.926 247.089 320.075 242.259 316.308 242.041Z" fill="#263238"/>
<g opacity="0.35">
<path d="M154.959 174.061C155.851 173.69 156.273 172.665 155.902 171.773C155.53 170.881 154.506 170.458 153.614 170.83C152.721 171.201 152.299 172.225 152.67 173.118C153.042 174.01 154.066 174.432 154.959 174.061Z" fill="#07743D"/>
<path d="M147.572 177.135C148.465 176.763 148.887 175.739 148.516 174.847C148.144 173.954 147.12 173.532 146.227 173.904C145.335 174.275 144.913 175.299 145.284 176.192C145.656 177.084 146.68 177.506 147.572 177.135Z" fill="#07743D"/>
<path d="M137.293 161.31L138.05 163.649C138.193 164.098 138.685 164.316 139.119 164.135L153.253 158.253C153.641 158.091 153.841 157.661 153.708 157.262C153.148 155.578 151.348 154.767 149.714 155.447L138.367 160.169C138.106 159.802 137.76 159.491 137.339 159.287C136.674 158.99 135.908 158.972 135.244 159.249L133.637 159.918C133.259 160.075 133.075 160.52 133.233 160.898C133.391 161.277 133.835 161.46 134.214 161.302L135.82 160.634C136.106 160.515 136.424 160.523 136.702 160.646C136.985 160.777 137.192 161.016 137.293 161.31Z" fill="#07743D"/>
<path d="M153.608 159.73L139.446 165.624C139.058 165.785 138.867 166.211 138.988 166.605L140.327 170.76C140.855 172.392 142.653 173.225 144.232 172.568L154.498 168.295C155.883 167.719 156.629 166.076 156.154 164.649L154.664 160.211C154.525 159.771 154.042 159.549 153.608 159.73Z" fill="#07743D"/>
</g>
<g opacity="0.35">
<path d="M504.6 101.31L498.95 98.27C498.35 97.95 497.64 97.95 497.04 98.27L491.4 101.31C490.99 101.54 490.73 101.98 490.73 102.46C490.73 102.95 490.98 103.39 491.4 103.61L497.05 106.65C497.35 106.81 497.68 106.89 498 106.89C498.32 106.89 498.66 106.81 498.95 106.65L504.6 103.61C505.01 103.39 505.27 102.95 505.27 102.46C505.27 101.98 505.01 101.54 504.6 101.31Z" fill="#07743D"/>
<path d="M496.12 107.71L490.87 105.09C490.46 104.88 490 104.91 489.61 105.14C489.23 105.38 489 105.79 489 106.24V111.2C489 112.06 489.48 112.83 490.25 113.22L495.5 115.84C495.68 115.93 495.88 115.98 496.08 115.98C496.31 115.98 496.55 115.91 496.76 115.79C497.14 115.55 497.37 115.14 497.37 114.69V109.73C497.36 108.87 496.88 108.1 496.12 107.71Z" fill="#07743D"/>
<path d="M507 106.24V108.7C506.52 108.56 506.01 108.5 505.5 108.5C504.14 108.5 502.81 108.97 501.76 109.81C500.32 110.94 499.5 112.65 499.5 114.5C499.5 114.99 499.56 115.48 499.69 115.95C499.54 115.93 499.39 115.87 499.25 115.78C498.87 115.55 498.64 115.14 498.64 114.69V109.73C498.64 108.87 499.12 108.1 499.88 107.71L505.13 105.09C505.54 104.88 506 104.91 506.39 105.14C506.77 105.38 507 105.79 507 106.24Z" fill="#07743D"/>
<path d="M508.98 111.65C508.16 110.64 506.91 110 505.5 110C504.44 110 503.46 110.37 502.69 110.99C501.65 111.81 501 113.08 501 114.5C501 115.91 501.64 117.16 502.65 117.98C503.42 118.62 504.42 119 505.5 119C506.64 119 507.67 118.57 508.47 117.88C509.4 117.05 510 115.85 510 114.5C510 113.42 509.62 112.42 508.98 111.65ZM506.53 114.78C506.53 115.04 506.39 115.29 506.17 115.42L504.76 116.26C504.64 116.33 504.51 116.37 504.37 116.37C504.12 116.37 503.87 116.24 503.73 116.01C503.52 115.65 503.63 115.19 503.99 114.98L505.03 114.36V113.1C505.03 112.69 505.37 112.35 505.78 112.35C506.19 112.35 506.53 112.69 506.53 113.1V114.78Z" fill="#07743D"/>
</g>
<g opacity="0.35">
<path d="M42.1401 546.96L33.1101 549.96C27.0401 551.99 27.0401 555.3 33.1101 557.32L35.7901 558.21L36.6801 560.89C38.7001 566.96 42.0201 566.96 44.0401 560.89L47.0501 551.87C48.3901 547.82 46.1901 545.61 42.1401 546.96ZM42.4601 552.34L38.6601 556.16C38.5101 556.31 38.3201 556.38 38.1301 556.38C37.9401 556.38 37.7501 556.31 37.6001 556.16C37.3101 555.87 37.3101 555.39 37.6001 555.1L41.4001 551.28C41.6901 550.99 42.1701 550.99 42.4601 551.28C42.7501 551.57 42.7501 552.05 42.4601 552.34Z" fill="#07743D"/>
</g>
<g opacity="0.35">
<path d="M618 365.25C618 365.66 617.66 366 617.25 366H598.75C598.34 366 598 365.66 598 365.25C598 364.84 598.34 364.5 598.75 364.5H617.25C617.66 364.5 618 364.84 618 365.25Z" fill="#07743D"/>
<path d="M611.39 348.52L600.65 359.26C600.24 359.67 599.58 359.67 599.18 359.26H599.17C597.78 357.86 597.78 355.6 599.17 354.21L606.32 347.06C607.72 345.66 609.98 345.66 611.38 347.06C611.79 347.45 611.79 348.12 611.39 348.52Z" fill="#07743D"/>
<path d="M616.82 352.49L613.77 349.44C613.36 349.03 612.7 349.03 612.3 349.44L601.56 360.18C601.15 360.58 601.15 361.24 601.56 361.65L604.61 364.71C606.01 366.1 608.27 366.1 609.67 364.71L616.81 357.56C618.23 356.16 618.23 353.89 616.82 352.49ZM608.76 361.52L607.55 362.74C607.3 362.99 606.89 362.99 606.63 362.74C606.38 362.49 606.38 362.08 606.63 361.82L607.85 360.6C608.09 360.36 608.51 360.36 608.76 360.6C609.01 360.85 609.01 361.28 608.76 361.52ZM612.73 357.55L610.29 360C610.04 360.24 609.63 360.24 609.37 360C609.12 359.75 609.12 359.34 609.37 359.08L611.82 356.63C612.06 356.39 612.48 356.39 612.73 356.63C612.98 356.89 612.98 357.3 612.73 357.55Z" fill="#07743D"/>
</g>
</g>
<defs>
<filter id="filter0_d_61_52503" x="30.7842" y="695.784" width="618.432" height="618.432" filterUnits="userSpaceOnUse" color-interpolation-filters="sRGB">
<feFlood flood-opacity="0" result="BackgroundImageFix"/>
<feColorMatrix in="SourceAlpha" type="matrix" values="0 0 0 0 0 0 0 0 0 0 0 0 0 0 0 0 0 0 127 0" result="hardAlpha"/>
<feOffset dy="4"/>
<feGaussianBlur stdDeviation="3.5"/>
<feComposite in2="hardAlpha" operator="out"/>
<feColorMatrix type="matrix" values="0 0 0 0 0.027451 0 0 0 0 0.454902 0 0 0 0 0.239216 0 0 0 1 0"/>
<feBlend mode="normal" in2="BackgroundImageFix" result="effect1_dropShadow_61_52503"/>
<feBlend mode="normal" in="SourceGraphic" in2="effect1_dropShadow_61_52503" result="shape"/>
</filter>
<filter id="filter1_d_61_52503" x="87.9834" y="752.983" width="504.034" height="504.033" filterUnits="userSpaceOnUse" color-interpolation-filters="sRGB">
<feFlood flood-opacity="0" result="BackgroundImageFix"/>
<feColorMatrix in="SourceAlpha" type="matrix" values="0 0 0 0 0 0 0 0 0 0 0 0 0 0 0 0 0 0 127 0" result="hardAlpha"/>
<feOffset dy="4"/>
<feGaussianBlur stdDeviation="3.5"/>
<feComposite in2="hardAlpha" operator="out"/>
<feColorMatrix type="matrix" values="0 0 0 0 0.027451 0 0 0 0 0.454902 0 0 0 0 0.239216 0 0 0 1 0"/>
<feBlend mode="normal" in2="BackgroundImageFix" result="effect1_dropShadow_61_52503"/>
<feBlend mode="normal" in="SourceGraphic" in2="effect1_dropShadow_61_52503" result="shape"/>
</filter>
<filter id="filter2_d_61_52503" x="143.475" y="808.475" width="393.05" height="393.05" filterUnits="userSpaceOnUse" color-interpolation-filters="sRGB">
<feFlood flood-opacity="0" result="BackgroundImageFix"/>
<feColorMatrix in="SourceAlpha" type="matrix" values="0 0 0 0 0 0 0 0 0 0 0 0 0 0 0 0 0 0 127 0" result="hardAlpha"/>
<feOffset dy="4"/>
<feGaussianBlur stdDeviation="3.5"/>
<feComposite in2="hardAlpha" operator="out"/>
<feColorMatrix type="matrix" values="0 0 0 0 0.027451 0 0 0 0 0.454902 0 0 0 0 0.239216 0 0 0 1 0"/>
<feBlend mode="normal" in2="BackgroundImageFix" result="effect1_dropShadow_61_52503"/>
<feBlend mode="normal" in="SourceGraphic" in2="effect1_dropShadow_61_52503" result="shape"/>
</filter>
<filter id="filter3_f_61_52503" x="301.2" y="726.2" width="127.6" height="23.6" filterUnits="userSpaceOnUse" color-interpolation-filters="sRGB">
<feFlood flood-opacity="0" result="BackgroundImageFix"/>
<feBlend mode="normal" in="SourceGraphic" in2="BackgroundImageFix" result="shape"/>
<feGaussianBlur stdDeviation="4.4" result="effect1_foregroundBlur_61_52503"/>
</filter>
<filter id="filter4_f_61_52503" x="134.9" y="719.9" width="146.2" height="42.2" filterUnits="userSpaceOnUse" color-interpolation-filters="sRGB">
<feFlood flood-opacity="0" result="BackgroundImageFix"/>
<feBlend mode="normal" in="SourceGraphic" in2="BackgroundImageFix" result="shape"/>
<feGaussianBlur stdDeviation="9.05" result="effect1_foregroundBlur_61_52503"/>
</filter>
<clipPath id="clip0_61_52503">
<rect width="680" height="992" rx="16" fill="white"/>
</clipPath>
</defs>
</svg>
