<svg width="12" height="12" viewBox="0 0 12 12" fill="none" xmlns="http://www.w3.org/2000/svg">
<path d="M11.0093 8.41013L9.44434 4.75013C9.15934 4.08013 8.73434 3.70013 8.24934 3.67513C7.76934 3.65013 7.30434 3.98513 6.94934 4.62513L5.99934 6.33013C5.79934 6.69013 5.51434 6.90513 5.20434 6.93013C4.88934 6.96013 4.57434 6.79513 4.31934 6.47013L4.20934 6.33013C3.85434 5.88513 3.41434 5.67013 2.96434 5.71513C2.51434 5.76013 2.12934 6.07013 1.87434 6.57513L1.00934 8.30013C0.699336 8.92513 0.729336 9.65013 1.09434 10.2401C1.45934 10.8301 2.09434 11.1851 2.78934 11.1851H9.16934C9.83934 11.1851 10.4643 10.8501 10.8343 10.2901C11.2143 9.73013 11.2743 9.02513 11.0093 8.41013Z" fill="#F6F6F6"/>
<path d="M3.48492 4.19055C4.41828 4.19055 5.17492 3.43391 5.17492 2.50055C5.17492 1.56719 4.41828 0.810547 3.48492 0.810547C2.55156 0.810547 1.79492 1.56719 1.79492 2.50055C1.79492 3.43391 2.55156 4.19055 3.48492 4.19055Z" fill="#F6F6F6"/>
</svg>
