<svg width="680" height="992" viewBox="0 0 680 992" fill="none" xmlns="http://www.w3.org/2000/svg">
<g clip-path="url(#clip0_24_11580)">
<rect width="680" height="992" rx="16" fill="#00BD59"/>
<circle opacity="0.3" cx="340" cy="1001" r="356" fill="#EEFFF5"/>
<g opacity="0.4" filter="url(#filter0_d_24_11580)">
<circle cx="340" cy="1001" r="302.216" fill="#EEFFF5"/>
</g>
<g opacity="0.6" filter="url(#filter1_d_24_11580)">
<circle cx="340" cy="1001" r="245.017" fill="#EEFFF5"/>
</g>
<g opacity="0.8" filter="url(#filter2_d_24_11580)">
<circle cx="340" cy="1001" r="189.525" fill="#EEFFF5"/>
</g>
<g filter="url(#filter3_f_24_11580)">
<ellipse cx="494" cy="718" rx="36" ry="3" fill="#252525" fill-opacity="0.6"/>
</g>
<g filter="url(#filter4_f_24_11580)">
<ellipse cx="178" cy="680" rx="12" ry="3" fill="#252525" fill-opacity="0.8"/>
</g>
<path fill-rule="evenodd" clip-rule="evenodd" d="M352.427 279.369C347.379 272.529 344.21 264.357 345.451 255.536C349.03 230.12 384.192 238.225 390.206 251.6C396.221 264.975 393.113 297.617 384.013 299.296C380.384 299.965 372.948 297.183 365.545 291.985L367.996 326.644L339.352 324.641L352.427 279.369Z" fill="#915B3C"/>
<path fill-rule="evenodd" clip-rule="evenodd" d="M333.558 246.161C332.697 245.179 332.284 243.835 331.934 242.562C331.571 241.24 331.221 239.905 331.014 238.54C330.601 235.813 330.811 232.726 332.872 230.775C334.524 229.211 336.881 228.623 339.02 228.608C340.444 228.599 341.886 228.899 343.213 229.441C344.529 229.978 345.629 230.942 346.898 231.581C347.15 228.692 347.857 225.699 349.497 223.332C351.076 221.054 353.421 219.878 356.01 219.704C358.667 219.526 361.223 220.324 363.49 221.763C364.058 222.123 364.619 222.498 365.151 222.916C365.598 223.265 366.058 223.681 366.598 223.848C367.201 224.035 367.529 223.702 367.958 223.283C368.462 222.792 369.02 222.367 369.605 221.997C372.192 220.36 375.473 219.843 378.248 221.126C379.526 221.717 380.744 222.655 381.554 223.886C382.275 224.984 382.726 226.676 383.772 227.479C384.216 227.82 384.573 227.434 385.017 227.162C385.685 226.753 386.327 226.295 387.002 225.899C387.95 225.343 388.962 224.948 390.027 224.779C391.587 224.531 393.703 224.762 394.002 226.804C394.114 227.571 393.931 228.37 393.824 229.127C393.678 230.167 393.529 231.206 393.365 232.243C393.241 233.031 393.1 233.79 392.896 234.557C392.788 234.966 392.484 235.722 392.633 236.15C392.819 236.685 393.865 236.461 394.302 236.51C395.165 236.606 396.024 236.819 396.798 237.244C397.398 237.575 398.021 238.042 398.233 238.771C398.363 239.219 398.29 239.664 398.182 240.108C398.053 240.641 398.137 240.934 398.168 241.483C399.37 240.992 403.487 240.002 403.848 242.121C403.969 242.826 403.53 243.583 403.195 244.148C402.61 245.138 401.87 246.029 401.118 246.875C399.55 248.64 397.721 250.129 395.778 251.377C397.874 252.49 398.241 255.366 396.249 256.926C395.37 257.614 394.246 257.702 393.207 257.582C392.826 257.538 392.286 257.352 391.981 257.398C391.816 257.422 391.634 257.547 391.409 257.547C389.929 257.545 388.292 257.074 386.875 256.646C384.352 255.885 382.009 254.5 380.155 252.511C379.68 252.001 379.279 251.698 378.594 251.657C377.993 251.621 377.393 251.745 376.793 251.718C375.204 251.647 373.828 250.772 372.392 250.153C372.163 252.136 371.443 254.288 370.504 256.021C369.738 257.434 368.338 257.549 366.967 257.582C362.584 257.687 358.246 256.924 353.885 256.625C358.039 257.874 362.373 258.572 366.478 259.988C368.333 260.627 366.8 261.801 365.93 262.628C364.497 263.989 363.381 265.723 362.562 267.574C360.685 264.738 357.16 262.709 353.869 263.31C350.232 263.974 347.379 268.629 349.421 272.262C350.606 274.371 352.946 275.317 354.879 276.322C353.211 277.83 352.668 280.191 351.592 282.136C351.061 283.095 350.335 284.171 349.279 284.445C348.888 284.546 348.439 284.526 348.116 284.816C347.716 285.175 347.597 285.6 347.097 285.898C345.103 287.087 342.14 286.777 340.575 284.934C339.16 283.267 339.73 280.826 341.113 279.333C339.146 278.347 335.53 277.002 336.556 273.902C332.186 273.303 322.023 265.436 328.28 260.645C325.174 258.591 322.515 253.916 324.867 250.124C326.679 247.203 330.494 246.108 333.558 246.161Z" fill="#191847"/>
<path fill-rule="evenodd" clip-rule="evenodd" d="M315.84 428.889L404.742 577.517L471.393 703.169H485.749L374.074 428.889L315.84 428.889Z" fill="#784931"/>
<path fill-rule="evenodd" clip-rule="evenodd" d="M462.615 697.368C461.277 700.942 460.607 703.615 460.607 705.389C460.607 707.546 460.967 710.695 461.686 714.834C464.188 714.834 486.682 714.834 529.166 714.834C530.92 709.037 529.907 705.907 526.129 705.445C522.351 704.982 519.213 704.565 516.714 704.192L485.349 690.21C484.746 689.941 484.038 690.212 483.769 690.816C483.765 690.826 483.76 690.836 483.756 690.847L481.74 695.737C478.242 697.369 475.4 698.185 473.214 698.185C471.437 698.185 468.983 697.468 465.853 696.033C464.652 695.482 463.231 696.009 462.681 697.211C462.657 697.262 462.635 697.315 462.615 697.368Z" fill="#E4E4E4"/>
<path fill-rule="evenodd" clip-rule="evenodd" d="M452.882 683.048L480.567 674.673C468.438 638.412 453.571 598.508 435.967 554.961C418.364 511.414 399.458 469.39 379.251 428.889H301.057C323.524 480.121 347.341 526.672 372.51 568.542C397.679 610.411 424.469 648.58 452.882 683.048Z" fill="#FDBF0C"/>
<path fill-rule="evenodd" clip-rule="evenodd" d="M309.998 428.889C301.607 481.118 285.424 547.846 283.896 549.905C282.878 551.278 246.224 563.561 173.932 586.753L177.033 599.413C263.24 586.974 308.664 577.324 313.305 570.462C320.265 560.169 355.021 478.855 368.483 428.889H309.998Z" fill="#915B3C"/>
<path fill-rule="evenodd" clip-rule="evenodd" d="M199.344 575.81L204.806 596.199C269.284 601.854 308.791 597.768 323.327 583.94C337.863 570.113 354.43 518.429 373.028 428.889H298.466C286.683 502.21 280.096 540.41 278.704 543.488C277.312 546.566 250.858 557.34 199.344 575.81Z" fill="#FDBF0C"/>
<path fill-rule="evenodd" clip-rule="evenodd" d="M177.473 581.479C173.721 580.781 170.972 580.587 169.225 580.895C167.101 581.269 164.063 582.17 160.111 583.597C160.546 586.061 164.452 608.213 171.829 650.052C177.843 650.772 180.749 649.232 180.548 645.431C180.347 641.63 180.213 638.466 180.146 635.941L188.47 602.625C188.63 601.984 188.24 601.334 187.599 601.174C187.588 601.172 187.577 601.169 187.566 601.167L182.4 600.03C180.185 596.869 178.888 594.212 178.509 592.059C178.2 590.309 178.481 587.768 179.35 584.436C179.684 583.157 178.918 581.85 177.639 581.516C177.584 581.502 177.529 581.49 177.473 581.479Z" fill="#E4E4E4"/>
<path fill-rule="evenodd" clip-rule="evenodd" d="M422.62 417.098L455.337 451.324C465.046 455.872 472.959 460.796 479.076 466.096C480.432 467.853 481.859 471.178 475.25 469.482C468.641 467.785 461.613 466.298 460.285 468.42C458.958 470.542 462.53 473.99 460.118 476.744C458.51 478.58 453.533 472.388 445.187 458.167L410.69 436.171L422.62 417.098ZM254.567 375.613L274.654 383.029C242.144 426.573 224.79 449.568 222.591 452.012C217.642 457.513 219.574 469.335 220.007 475.469C211.091 476.109 216.533 463.7 205.223 464.679C194.899 465.573 185.474 470.571 177.565 460.565C176.593 459.335 176.279 455.921 180.428 454.853C190.764 452.192 206.298 446.603 209.098 443.922C212.916 440.265 228.073 417.496 254.567 375.613Z" fill="#915B3C"/>
<path fill-rule="evenodd" clip-rule="evenodd" d="M430.846 421.642C435.743 422.148 440.862 423.876 446.166 426.771C448.776 428.195 449.738 431.466 448.313 434.076C447.486 435.592 446.036 436.552 444.454 436.811C445.395 437.788 446.345 438.763 447.306 439.735L434.412 457.42C398.021 430.491 363.164 408.88 351.867 373.024C348.075 360.99 356.618 323.89 358.473 310.172L371.985 307.226C383.149 346.633 400.779 385.659 430.846 421.642Z" fill="#E60007"/>
<path fill-rule="evenodd" clip-rule="evenodd" d="M291.877 429.007C328.202 439.608 357.358 444.749 379.346 444.43C382.07 444.391 383.957 433.01 383.282 429.692C372.77 378.022 366.488 340.446 372.405 306.888C368.591 308.096 362.432 307.292 353.927 304.475C324.365 334.921 306.584 372.699 291.877 429.007Z" fill="#FFEFEF"/>
<path fill-rule="evenodd" clip-rule="evenodd" d="M283.987 433.505C282.938 432.1 282.595 430.21 283.239 428.439L284.467 425.066C285.299 422.78 287.518 421.4 289.827 421.531C290.534 419.833 291.185 418.137 291.774 416.443C296.748 402.139 295.23 386.986 297.921 372.843C276.124 385.667 254.206 410.582 232.167 447.588L211.068 437.116C212.473 434.112 213.902 431.151 215.355 428.235C213.043 426.322 211.221 419.106 213.579 418.367C216.013 417.605 218.52 417.208 221.093 417.168C252.334 359.309 293.626 320.247 344.97 299.982L349.068 300.705L358.37 302.345C345.225 353.823 379.633 477.337 343.559 571.281C307.208 572.924 261.564 539.82 209.539 550.665C218.255 511.808 262.596 472.173 283.987 433.505Z" fill="#E60007"/>
<path fill-rule="evenodd" clip-rule="evenodd" d="M349.629 302.018L340.254 319.64L350.024 335.812L337.02 344.874L355.704 395.42L331.038 343.913L343.862 334.725L335.179 320.425L349.629 302.018Z" fill="black" fill-opacity="0.1"/>
<path fill-rule="evenodd" clip-rule="evenodd" d="M344.737 411.71C342.135 411.251 340.397 408.769 340.855 406.166C341.314 403.563 343.797 401.825 346.4 402.284C349.002 402.743 350.74 405.225 350.281 407.828C349.822 410.431 347.34 412.169 344.737 411.71ZM345.85 439.848C343.247 439.389 341.509 436.907 341.968 434.304C342.427 431.701 344.909 429.963 347.512 430.422C350.115 430.881 351.853 433.363 351.394 435.966C350.935 438.569 348.453 440.307 345.85 439.848ZM342.25 467.156C339.647 466.697 337.909 464.215 338.368 461.612C338.827 459.009 341.309 457.271 343.912 457.73C346.515 458.189 348.253 460.671 347.794 463.274C347.335 465.877 344.853 467.615 342.25 467.156Z" fill="black" fill-opacity="0.4"/>
<g opacity="0.35">
<path d="M154.958 174.061C155.85 173.69 156.273 172.665 155.901 171.773C155.53 170.881 154.506 170.458 153.613 170.83C152.721 171.201 152.299 172.225 152.67 173.118C153.041 174.01 154.066 174.432 154.958 174.061Z" fill="#07743D"/>
<path d="M147.572 177.135C148.465 176.763 148.887 175.739 148.516 174.847C148.144 173.954 147.12 173.532 146.227 173.904C145.335 174.275 144.913 175.299 145.284 176.192C145.656 177.084 146.68 177.506 147.572 177.135Z" fill="#07743D"/>
<path d="M137.293 161.31L138.049 163.649C138.193 164.098 138.684 164.316 139.118 164.135L153.253 158.253C153.641 158.091 153.841 157.661 153.707 157.262C153.147 155.578 151.348 154.767 149.713 155.447L138.367 160.17C138.106 159.802 137.759 159.491 137.339 159.287C136.674 158.99 135.908 158.972 135.243 159.249L133.637 159.918C133.258 160.075 133.075 160.52 133.233 160.898C133.39 161.277 133.835 161.46 134.213 161.302L135.82 160.634C136.106 160.515 136.424 160.523 136.702 160.646C136.984 160.777 137.192 161.016 137.293 161.31Z" fill="#07743D"/>
<path d="M153.608 159.73L139.445 165.624C139.058 165.785 138.867 166.211 138.987 166.605L140.326 170.76C140.854 172.392 142.652 173.225 144.231 172.568L154.497 168.295C155.882 167.719 156.628 166.076 156.154 164.649L154.664 160.211C154.524 159.771 154.042 159.549 153.608 159.73Z" fill="#07743D"/>
</g>
<g opacity="0.35">
<path d="M504.6 101.31L498.95 98.27C498.35 97.95 497.64 97.95 497.04 98.27L491.4 101.31C490.99 101.54 490.73 101.98 490.73 102.46C490.73 102.95 490.98 103.39 491.4 103.61L497.05 106.65C497.35 106.81 497.68 106.89 498 106.89C498.32 106.89 498.66 106.81 498.95 106.65L504.6 103.61C505.01 103.39 505.27 102.95 505.27 102.46C505.27 101.98 505.01 101.54 504.6 101.31Z" fill="#07743D"/>
<path d="M496.12 107.71L490.87 105.09C490.46 104.88 490 104.91 489.61 105.14C489.23 105.38 489 105.79 489 106.24V111.2C489 112.06 489.48 112.83 490.25 113.22L495.5 115.84C495.68 115.93 495.88 115.98 496.08 115.98C496.31 115.98 496.55 115.91 496.76 115.79C497.14 115.55 497.37 115.14 497.37 114.69V109.73C497.36 108.87 496.88 108.1 496.12 107.71Z" fill="#07743D"/>
<path d="M507 106.24V108.7C506.52 108.56 506.01 108.5 505.5 108.5C504.14 108.5 502.81 108.97 501.76 109.81C500.32 110.94 499.5 112.65 499.5 114.5C499.5 114.99 499.56 115.48 499.69 115.95C499.54 115.93 499.39 115.87 499.25 115.78C498.87 115.55 498.64 115.14 498.64 114.69V109.73C498.64 108.87 499.12 108.1 499.88 107.71L505.13 105.09C505.54 104.88 506 104.91 506.39 105.14C506.77 105.38 507 105.79 507 106.24Z" fill="#07743D"/>
<path d="M508.98 111.65C508.16 110.64 506.91 110 505.5 110C504.44 110 503.46 110.37 502.69 110.99C501.65 111.81 501 113.08 501 114.5C501 115.91 501.64 117.16 502.65 117.98C503.42 118.62 504.42 119 505.5 119C506.64 119 507.67 118.57 508.47 117.88C509.4 117.05 510 115.85 510 114.5C510 113.42 509.62 112.42 508.98 111.65ZM506.53 114.78C506.53 115.04 506.39 115.29 506.17 115.42L504.76 116.26C504.64 116.33 504.51 116.37 504.37 116.37C504.12 116.37 503.87 116.24 503.73 116.01C503.52 115.65 503.63 115.19 503.99 114.98L505.03 114.36V113.1C505.03 112.69 505.37 112.35 505.78 112.35C506.19 112.35 506.53 112.69 506.53 113.1V114.78Z" fill="#07743D"/>
</g>
<g opacity="0.35">
<path d="M42.14 546.96L33.11 549.96C27.04 551.99 27.04 555.3 33.11 557.32L35.79 558.21L36.68 560.89C38.7 566.96 42.02 566.96 44.04 560.89L47.05 551.87C48.39 547.82 46.19 545.61 42.14 546.96ZM42.46 552.34L38.66 556.16C38.51 556.31 38.32 556.38 38.13 556.38C37.94 556.38 37.75 556.31 37.6 556.16C37.31 555.87 37.31 555.39 37.6 555.1L41.4 551.28C41.69 550.99 42.17 550.99 42.46 551.28C42.75 551.57 42.75 552.05 42.46 552.34Z" fill="#07743D"/>
</g>
<g opacity="0.35">
<path d="M618 365.25C618 365.66 617.66 366 617.25 366H598.75C598.34 366 598 365.66 598 365.25C598 364.84 598.34 364.5 598.75 364.5H617.25C617.66 364.5 618 364.84 618 365.25Z" fill="#07743D"/>
<path d="M611.39 348.52L600.65 359.26C600.24 359.67 599.58 359.67 599.18 359.26H599.17C597.78 357.86 597.78 355.6 599.17 354.21L606.32 347.06C607.72 345.66 609.98 345.66 611.38 347.06C611.79 347.45 611.79 348.12 611.39 348.52Z" fill="#07743D"/>
<path d="M616.82 352.49L613.77 349.44C613.36 349.03 612.7 349.03 612.3 349.44L601.56 360.18C601.15 360.58 601.15 361.24 601.56 361.65L604.61 364.71C606.01 366.1 608.27 366.1 609.67 364.71L616.81 357.56C618.23 356.16 618.23 353.89 616.82 352.49ZM608.76 361.52L607.55 362.74C607.3 362.99 606.89 362.99 606.63 362.74C606.38 362.49 606.38 362.08 606.63 361.82L607.85 360.6C608.09 360.36 608.51 360.36 608.76 360.6C609.01 360.85 609.01 361.28 608.76 361.52ZM612.73 357.55L610.29 360C610.04 360.24 609.63 360.24 609.37 360C609.12 359.75 609.12 359.34 609.37 359.08L611.82 356.63C612.06 356.39 612.48 356.39 612.73 356.63C612.98 356.89 612.98 357.3 612.73 357.55Z" fill="#07743D"/>
</g>
</g>
<defs>
<filter id="filter0_d_24_11580" x="30.7842" y="695.784" width="618.432" height="618.432" filterUnits="userSpaceOnUse" color-interpolation-filters="sRGB">
<feFlood flood-opacity="0" result="BackgroundImageFix"/>
<feColorMatrix in="SourceAlpha" type="matrix" values="0 0 0 0 0 0 0 0 0 0 0 0 0 0 0 0 0 0 127 0" result="hardAlpha"/>
<feOffset dy="4"/>
<feGaussianBlur stdDeviation="3.5"/>
<feComposite in2="hardAlpha" operator="out"/>
<feColorMatrix type="matrix" values="0 0 0 0 0.027451 0 0 0 0 0.454902 0 0 0 0 0.239216 0 0 0 1 0"/>
<feBlend mode="normal" in2="BackgroundImageFix" result="effect1_dropShadow_24_11580"/>
<feBlend mode="normal" in="SourceGraphic" in2="effect1_dropShadow_24_11580" result="shape"/>
</filter>
<filter id="filter1_d_24_11580" x="87.9834" y="752.983" width="504.034" height="504.034" filterUnits="userSpaceOnUse" color-interpolation-filters="sRGB">
<feFlood flood-opacity="0" result="BackgroundImageFix"/>
<feColorMatrix in="SourceAlpha" type="matrix" values="0 0 0 0 0 0 0 0 0 0 0 0 0 0 0 0 0 0 127 0" result="hardAlpha"/>
<feOffset dy="4"/>
<feGaussianBlur stdDeviation="3.5"/>
<feComposite in2="hardAlpha" operator="out"/>
<feColorMatrix type="matrix" values="0 0 0 0 0.027451 0 0 0 0 0.454902 0 0 0 0 0.239216 0 0 0 1 0"/>
<feBlend mode="normal" in2="BackgroundImageFix" result="effect1_dropShadow_24_11580"/>
<feBlend mode="normal" in="SourceGraphic" in2="effect1_dropShadow_24_11580" result="shape"/>
</filter>
<filter id="filter2_d_24_11580" x="143.475" y="808.475" width="393.05" height="393.05" filterUnits="userSpaceOnUse" color-interpolation-filters="sRGB">
<feFlood flood-opacity="0" result="BackgroundImageFix"/>
<feColorMatrix in="SourceAlpha" type="matrix" values="0 0 0 0 0 0 0 0 0 0 0 0 0 0 0 0 0 0 127 0" result="hardAlpha"/>
<feOffset dy="4"/>
<feGaussianBlur stdDeviation="3.5"/>
<feComposite in2="hardAlpha" operator="out"/>
<feColorMatrix type="matrix" values="0 0 0 0 0.027451 0 0 0 0 0.454902 0 0 0 0 0.239216 0 0 0 1 0"/>
<feBlend mode="normal" in2="BackgroundImageFix" result="effect1_dropShadow_24_11580"/>
<feBlend mode="normal" in="SourceGraphic" in2="effect1_dropShadow_24_11580" result="shape"/>
</filter>
<filter id="filter3_f_24_11580" x="447.2" y="704.2" width="93.6" height="27.6" filterUnits="userSpaceOnUse" color-interpolation-filters="sRGB">
<feFlood flood-opacity="0" result="BackgroundImageFix"/>
<feBlend mode="normal" in="SourceGraphic" in2="BackgroundImageFix" result="shape"/>
<feGaussianBlur stdDeviation="5.4" result="effect1_foregroundBlur_24_11580"/>
</filter>
<filter id="filter4_f_24_11580" x="150.6" y="661.6" width="54.8" height="36.8" filterUnits="userSpaceOnUse" color-interpolation-filters="sRGB">
<feFlood flood-opacity="0" result="BackgroundImageFix"/>
<feBlend mode="normal" in="SourceGraphic" in2="BackgroundImageFix" result="shape"/>
<feGaussianBlur stdDeviation="7.7" result="effect1_foregroundBlur_24_11580"/>
</filter>
<clipPath id="clip0_24_11580">
<rect width="680" height="992" rx="16" fill="white"/>
</clipPath>
</defs>
</svg>
