<svg width="20" height="21" viewBox="0 0 20 21" fill="none" xmlns="http://www.w3.org/2000/svg">
<path fill-rule="evenodd" clip-rule="evenodd" d="M0 10.2002C0 4.67735 4.47715 0.200195 10 0.200195C15.5228 0.200195 20 4.67735 20 10.2002C20 15.723 15.5228 20.2002 10 20.2002C4.47715 20.2002 0 15.723 0 10.2002ZM10 5.2002C12.75 5.2002 15 7.4502 15 10.2002C15 12.7002 13.1875 14.8252 10.6875 15.2002V11.6377H11.875L12.125 10.2002H10.75V9.2627C10.75 8.8877 10.9375 8.5127 11.5625 8.5127H12.1875V7.2627C12.1875 7.2627 11.625 7.1377 11.0625 7.1377C9.9375 7.1377 9.1875 7.8252 9.1875 9.0752V10.2002H7.9375V11.6377H9.1875V15.1377C6.8125 14.7627 5 12.7002 5 10.2002C5 7.4502 7.25 5.2002 10 5.2002Z" fill="white"/>
</svg>
