<svg width="20" height="21" viewBox="0 0 20 21" fill="none" xmlns="http://www.w3.org/2000/svg">
<path d="M10 11.9502C9.0625 11.9502 8.25 11.2002 8.25 10.2002C8.25 9.26269 9 8.45019 10 8.45019C10.9375 8.45019 11.75 9.20019 11.75 10.2002C11.75 11.1377 10.9375 11.9502 10 11.9502Z" fill="white"/>
<path fill-rule="evenodd" clip-rule="evenodd" d="M12.125 5.95019H7.875C7.375 6.01269 7.125 6.07519 6.9375 6.13769C6.6875 6.20019 6.5 6.32519 6.3125 6.51269C6.16413 6.66106 6.09403 6.80943 6.0093 6.98876C5.98697 7.03602 5.96356 7.08556 5.9375 7.13769C5.92783 7.1667 5.91667 7.1972 5.9047 7.22989C5.83932 7.40853 5.75 7.65254 5.75 8.07519V12.3252C5.8125 12.8252 5.875 13.0752 5.9375 13.2627C6 13.5127 6.125 13.7002 6.3125 13.8877C6.46087 14.0361 6.60923 14.1062 6.78857 14.1909C6.83587 14.2132 6.88532 14.2366 6.9375 14.2627C6.96651 14.2724 6.99701 14.2835 7.0297 14.2955C7.20833 14.3609 7.45235 14.4502 7.875 14.4502H12.125C12.625 14.3877 12.875 14.3252 13.0625 14.2627C13.3125 14.2002 13.5 14.0752 13.6875 13.8877C13.8359 13.7393 13.906 13.591 13.9907 13.4116C14.013 13.3643 14.0364 13.3149 14.0625 13.2627C14.0722 13.2337 14.0833 13.2032 14.0953 13.1705C14.1607 12.9919 14.25 12.7478 14.25 12.3252V8.07519C14.1875 7.57519 14.125 7.32519 14.0625 7.13769C14 6.88769 13.875 6.70019 13.6875 6.51269C13.5391 6.36433 13.3908 6.29423 13.2114 6.2095C13.1642 6.18718 13.1146 6.16374 13.0625 6.13769C13.0335 6.12803 13.003 6.11686 12.9703 6.10489C12.7917 6.03951 12.5477 5.95019 12.125 5.95019ZM10 7.51269C8.5 7.51269 7.3125 8.70019 7.3125 10.2002C7.3125 11.7002 8.5 12.8877 10 12.8877C11.5 12.8877 12.6875 11.7002 12.6875 10.2002C12.6875 8.70019 11.5 7.51269 10 7.51269ZM13.375 7.45019C13.375 7.79537 13.0952 8.07519 12.75 8.07519C12.4048 8.07519 12.125 7.79537 12.125 7.45019C12.125 7.10502 12.4048 6.82519 12.75 6.82519C13.0952 6.82519 13.375 7.10502 13.375 7.45019Z" fill="white"/>
<path fill-rule="evenodd" clip-rule="evenodd" d="M0 10.2002C0 4.67735 4.47715 0.200195 10 0.200195C15.5228 0.200195 20 4.67735 20 10.2002C20 15.723 15.5228 20.2002 10 20.2002C4.47715 20.2002 0 15.723 0 10.2002ZM7.875 5.01269H12.125C12.6875 5.07519 13.0625 5.13769 13.375 5.26269C13.75 5.45019 14 5.57519 14.3125 5.88769C14.625 6.20019 14.8125 6.51269 14.9375 6.82519C15.0625 7.13769 15.1875 7.51269 15.1875 8.07519V12.3252C15.125 12.8877 15.0625 13.2627 14.9375 13.5752C14.75 13.9502 14.625 14.2002 14.3125 14.5127C14 14.8252 13.6875 15.0127 13.375 15.1377C13.0625 15.2627 12.6875 15.3877 12.125 15.3877H7.875C7.3125 15.3252 6.9375 15.2627 6.625 15.1377C6.25 14.9502 6 14.8252 5.6875 14.5127C5.375 14.2002 5.1875 13.8877 5.0625 13.5752C4.9375 13.2627 4.8125 12.8877 4.8125 12.3252V8.07519C4.875 7.51269 4.9375 7.13769 5.0625 6.82519C5.25 6.45019 5.375 6.20019 5.6875 5.88769C6 5.57519 6.3125 5.38769 6.625 5.26269C6.9375 5.13769 7.3125 5.01269 7.875 5.01269Z" fill="white"/>
</svg>
