<svg width="20" height="21" viewBox="0 0 20 21" fill="none" xmlns="http://www.w3.org/2000/svg">
<path fill-rule="evenodd" clip-rule="evenodd" d="M0 10.2002C0 4.67735 4.47715 0.200195 10 0.200195C15.5228 0.200195 20 4.67735 20 10.2002C20 15.723 15.5228 20.2002 10 20.2002C4.47715 20.2002 0 15.723 0 10.2002ZM5.125 8.5127V15.2002H7.25V8.5127H5.125ZM5 6.3877C5 7.0752 5.5 7.5752 6.1875 7.5752C6.875 7.5752 7.375 7.0752 7.375 6.3877C7.375 5.7002 6.875 5.2002 6.1875 5.2002C5.5625 5.2002 5 5.7002 5 6.3877ZM12.875 15.2002H14.875V11.0752C14.875 9.01269 13.625 8.3252 12.4375 8.3252C11.375 8.3252 10.625 9.01269 10.4375 9.4502V8.5127H8.4375V15.2002H10.5625V11.6377C10.5625 10.7002 11.1875 10.2002 11.8125 10.2002C12.4375 10.2002 12.875 10.5127 12.875 11.5752V15.2002Z" fill="white"/>
</svg>
