<svg width="13" height="13" viewBox="0 0 13 13" fill="none" xmlns="http://www.w3.org/2000/svg">
<path d="M7.06564 2.15497L7.94564 3.91497C8.06564 4.15997 8.38564 4.39497 8.65564 4.43997L10.2506 4.70497C11.2706 4.87497 11.5106 5.61497 10.7756 6.34497L9.53564 7.58497C9.32564 7.79497 9.21064 8.19997 9.27564 8.48997L9.63064 10.025C9.91064 11.24 9.26564 11.71 8.19064 11.075L6.69564 10.19C6.42564 10.03 5.98064 10.03 5.70564 10.19L4.21064 11.075C3.14064 11.71 2.49064 11.235 2.77064 10.025L3.12564 8.48997C3.19064 8.19997 3.07564 7.79497 2.86564 7.58497L1.62564 6.34497C0.895638 5.61497 1.13064 4.87497 2.15064 4.70497L3.74564 4.43997C4.01064 4.39497 4.33064 4.15997 4.45064 3.91497L5.33064 2.15497C5.81064 1.19997 6.59064 1.19997 7.06564 2.15497Z" fill="#FDBF0C" stroke="#FDBF0C" stroke-width="1.5" stroke-linecap="round" stroke-linejoin="round"/>
</svg>
